<?xml version="1.0" encoding="UTF-8" standalone="no"?>
<svg
   xmlns:dc="http://purl.org/dc/elements/1.1/"
   xmlns:cc="http://creativecommons.org/ns#"
   xmlns:rdf="http://www.w3.org/1999/02/22-rdf-syntax-ns#"
   xmlns:svg="http://www.w3.org/2000/svg"
   xmlns="http://www.w3.org/2000/svg"
   viewBox="0 0 893.8667 281.90668"
   height="281.90668"
   width="893.8667"
   xml:space="preserve"
   id="svg2"
   version="1.1"><metadata
     id="metadata8"><rdf:RDF><cc:Work
         rdf:about=""><dc:format>image/svg+xml</dc:format><dc:type
           rdf:resource="http://purl.org/dc/dcmitype/StillImage" /></cc:Work></rdf:RDF></metadata><defs
     id="defs6"><clipPath
       id="clipPath20"
       clipPathUnits="userSpaceOnUse"><path
         id="path18"
         d="m 1373.57,985.32 c 0,-248.281 -201.28,-449.55 -449.55,-449.55 -248.274,0 -449.543,201.269 -449.543,449.55 0,248.27 201.269,449.54 449.543,449.54 248.27,0 449.55,-201.27 449.55,-449.54 z" /></clipPath><radialGradient
       id="radialGradient28"
       spreadMethod="pad"
       gradientTransform="matrix(318.432,-515.234,-364.655,-225.37,1005.46,961.65)"
       gradientUnits="userSpaceOnUse"
       r="1"
       cy="0"
       cx="0"
       fy="0"
       fx="0"><stop
         id="stop22"
         offset="0"
         style="stop-opacity:1;stop-color:#ffffff" /><stop
         id="stop24"
         offset="0.41503706"
         style="stop-opacity:1;stop-color:#ffffff" /><stop
         id="stop26"
         offset="1"
         style="stop-opacity:1;stop-color:#4f4c4d" /></radialGradient><clipPath
       id="clipPath38"
       clipPathUnits="userSpaceOnUse"><path
         id="path36"
         d="M 203.117,1145.25 C -8.18359,873.051 -52.5625,553.16 89.9844,312.621 280.824,-9.39844 773.316,-77.2109 1234.14,136.988 552.027,295.621 254.371,704.328 203.117,1145.25 Z" /></clipPath><radialGradient
       id="radialGradient48"
       spreadMethod="pad"
       gradientTransform="matrix(648.604,382.939,-339.705,575.376,782.093,700.8)"
       gradientUnits="userSpaceOnUse"
       r="1"
       cy="0"
       cx="0"
       fy="0"
       fx="0"><stop
         id="stop40"
         offset="0"
         style="stop-opacity:1;stop-color:#4f4c4d" /><stop
         id="stop42"
         offset="0.252809"
         style="stop-opacity:1;stop-color:#4f4c4d" /><stop
         id="stop44"
         offset="0.42678097"
         style="stop-opacity:1;stop-color:#4f4c4d" /><stop
         id="stop46"
         offset="1"
         style="stop-opacity:1;stop-color:#231f20" /></radialGradient><clipPath
       id="clipPath60"
       clipPathUnits="userSpaceOnUse"><path
         id="path58"
         d="m 1899.17,1351.58 c -119.63,206.07 -356.25,332.12 -636.32,326.48 472.54,-598.4 226.12,-1243.591 39.59,-1509.279 25.26,12.77 50.41,26.149 75.36,40.637 497.15,288.691 727.12,787.832 521.37,1142.162 z" /></clipPath><radialGradient
       id="radialGradient66"
       spreadMethod="pad"
       gradientTransform="matrix(476.733,-345.766,413.989,570.797,1312.75,956.04)"
       gradientUnits="userSpaceOnUse"
       r="1"
       cy="0"
       cx="0"
       fy="0"
       fx="0"><stop
         id="stop62"
         offset="0"
         style="stop-opacity:1;stop-color:#4dbd38" /><stop
         id="stop64"
         offset="1"
         style="stop-opacity:1;stop-color:#205013" /></radialGradient><clipPath
       id="clipPath78"
       clipPathUnits="userSpaceOnUse"><path
         id="path76"
         d="M 881.773,1432.4 C 653.305,1411.11 474.477,1218.85 474.477,984.809 c 0,-40.95 5.48,-80.629 15.734,-118.329 10.121,-24.402 21.019,-48.742 32.68,-72.921 13.422,-27.829 27.578,-54.399 42.422,-79.739 72.238,-95.461 181.71,-161.199 306.796,-175.582 -137.312,334.563 -119.39,659.272 9.664,894.162" /></clipPath><radialGradient
       id="radialGradient86"
       spreadMethod="pad"
       gradientTransform="matrix(318.592,-515.49,364.837,225.482,1004.89,961.13)"
       gradientUnits="userSpaceOnUse"
       r="1"
       cy="0"
       cx="0"
       fy="0"
       fx="0"><stop
         id="stop80"
         offset="0"
         style="stop-opacity:1;stop-color:#d3d2d2" /><stop
         id="stop82"
         offset="0.42059215"
         style="stop-opacity:1;stop-color:#d3d2d2" /><stop
         id="stop84"
         offset="1"
         style="stop-opacity:1;stop-color:#393536" /></radialGradient><clipPath
       id="clipPath96"
       clipPathUnits="userSpaceOnUse"><path
         id="path94"
         d="M 931.09,463.289 C 604.941,928.48 666.984,1448.4 994.805,1678.24 1183.78,1810.74 1388.65,1811.66 1624.85,1727.7 1297.6,2105.04 836.578,2203.94 540.305,1991.84 225.152,1766.21 197.141,1180.2 523.313,715 661.461,517.961 832.832,409.98 1023.83,344.59 991.5,381.91 960.449,421.441 931.09,463.289 Z" /></clipPath><radialGradient
       id="radialGradient104"
       spreadMethod="pad"
       gradientTransform="matrix(563.069,-911.064,644.803,398.51,1079.36,1176.84)"
       gradientUnits="userSpaceOnUse"
       r="1"
       cy="0"
       cx="0"
       fy="0"
       fx="0"><stop
         id="stop98"
         offset="0"
         style="stop-opacity:1;stop-color:#73d2f6" /><stop
         id="stop100"
         offset="0.252809"
         style="stop-opacity:1;stop-color:#73d2f6" /><stop
         id="stop102"
         offset="1"
         style="stop-opacity:1;stop-color:#3872c1" /></radialGradient><clipPath
       id="clipPath184"
       clipPathUnits="userSpaceOnUse"><path
         id="path182"
         d="m 3267.75,1441.87 h 212.5 l -50.52,-196.16 H 3217.22 Z M 3171.16,244.141 h -212.5 l 234.79,909.439 h 212.5 z" /></clipPath><linearGradient
       id="linearGradient192"
       spreadMethod="pad"
       gradientTransform="matrix(-121.591,-660.325,660.325,-121.591,3318.78,1382.44)"
       gradientUnits="userSpaceOnUse"
       y2="0"
       x2="1"
       y1="0"
       x1="0"><stop
         id="stop186"
         offset="0"
         style="stop-opacity:1;stop-color:#4f4c4d" /><stop
         id="stop188"
         offset="0.23283468"
         style="stop-opacity:1;stop-color:#4f4c4d" /><stop
         id="stop190"
         offset="1"
         style="stop-opacity:1;stop-color:#231f20" /></linearGradient><clipPath
       id="clipPath206"
       clipPathUnits="userSpaceOnUse"><path
         id="path204"
         d="m 3639.37,613.98 324.1,98.25 c 18.81,5.938 30.21,17.84 34.18,35.668 l 44.29,167.922 c 0.99,6.918 -0.5,14.348 -4.45,22.289 -3.97,6.922 -10.4,10.403 -19.32,10.403 h -294.23 z m -74.43,539.6 h 485.93 c 59.43,0 108.47,-19.32 147.11,-57.96 39.62,-39.63 59.44,-88.67 59.44,-147.108 0,-16.864 -2.48,-34.184 -7.43,-52.012 l -60.64,-227.359 c -19.83,-75.301 -65.9,-123.852 -138.21,-145.629 l -472.23,-145.953 -34.5,-133.418 h -213.98 z" /></clipPath><linearGradient
       id="linearGradient214"
       spreadMethod="pad"
       gradientTransform="matrix(-248.465,-893.077,893.077,-248.465,4021.5,1430.17)"
       gradientUnits="userSpaceOnUse"
       y2="0"
       x2="1"
       y1="0"
       x1="0"><stop
         id="stop208"
         offset="0"
         style="stop-opacity:1;stop-color:#4f4c4d" /><stop
         id="stop210"
         offset="0.23283468"
         style="stop-opacity:1;stop-color:#4f4c4d" /><stop
         id="stop212"
         offset="1"
         style="stop-opacity:1;stop-color:#231f20" /></linearGradient><clipPath
       id="clipPath230"
       clipPathUnits="userSpaceOnUse"><path
         id="path228"
         d="m 4764.13,1153.58 h 132.25 L 4847.35,976.738 H 4718.06 L 4529.34,244.141 h -211.02 l 190.22,732.597 h -112.95 l 49.05,176.842 h 108.47 l 49.04,185.75 h 212.51 z" /></clipPath><radialGradient
       id="radialGradient236"
       spreadMethod="pad"
       gradientTransform="matrix(944.585,0,0,944.585,5048.91,1016.13)"
       gradientUnits="userSpaceOnUse"
       r="1"
       cy="0"
       cx="0"
       fy="0"
       fx="0"><stop
         id="stop232"
         offset="0"
         style="stop-opacity:1;stop-color:#4dbd38" /><stop
         id="stop234"
         offset="1"
         style="stop-opacity:1;stop-color:#205013" /></radialGradient><clipPath
       id="clipPath248"
       clipPathUnits="userSpaceOnUse"><path
         id="path246"
         d="m 5559.14,884.609 c 0.98,3.942 1.48,8.411 1.48,13.371 0,30.7 -16.85,48.04 -50.52,52.02 h -219.93 c -27.75,0 -44.58,-12.891 -50.53,-38.641 l -38.63,-159.007 326.92,99.566 c 28.97,8.941 31.21,32.691 31.21,32.691 z m 47.55,-435.398 -53.49,-205.07 h -432.37 c -70.81,0 -122.47,16.339 -154.96,49.027 -32.46,32.703 -48.69,85.191 -48.69,157.523 0,15.84 2.46,32.7 7.38,50.528 L 5050,1000.52 c 11.81,45.56 35.43,82.71 70.83,111.45 37.62,28.73 79.67,43.1 126.25,43.1 H 5574 c 56.47,0 105.99,-18.88 148.6,-56.59 43.59,-40.72 63.39,-89.37 59.44,-145.929 -1,-10.942 -2.22,-20.883 -3.71,-29.789 -1.49,-8.942 -3.23,-17.371 -5.2,-25.313 l -19.32,-87.859 c -7.95,-37.731 -24.03,-69.012 -48.29,-93.828 -24.29,-24.821 -54.76,-42.703 -91.4,-53.614 l -475.53,-144.449 -8.91,-37.219 v -5.96 c 0,-16.891 8.43,-25.309 25.26,-25.309 z" /></clipPath><radialGradient
       id="radialGradient254"
       spreadMethod="pad"
       gradientTransform="matrix(1021.14,0,0,1021.14,5733.51,1094.11)"
       gradientUnits="userSpaceOnUse"
       r="1"
       cy="0"
       cx="0"
       fy="0"
       fx="0"><stop
         id="stop250"
         offset="0"
         style="stop-opacity:1;stop-color:#4dbd38" /><stop
         id="stop252"
         offset="1"
         style="stop-opacity:1;stop-color:#205013" /></radialGradient><clipPath
       id="clipPath272"
       clipPathUnits="userSpaceOnUse"><path
         id="path270"
         d="m 6498.28,449.211 -53.49,-205.07 h -392.31 c -59.45,0 -108.49,19.308 -147.12,57.949 -39.61,39.609 -59.44,89.16 -59.44,148.601 0,15.84 2.48,32.7 7.43,50.528 l 124.82,497.812 c 11.9,46.559 36.18,83.709 72.82,111.449 37.64,28.73 79.73,43.1 126.31,43.1 h 499.31 l -52.02,-205.068 h -407.16 c -27.75,0 -44.59,-12.934 -50.53,-38.75 l -98.08,-396.473 c -0.97,-2.969 -1.48,-7.449 -1.48,-13.418 0,-33.793 16.85,-50.66 50.52,-50.66 z" /></clipPath><radialGradient
       id="radialGradient278"
       spreadMethod="pad"
       gradientTransform="matrix(825.032,0,0,825.032,6550.81,818.3)"
       gradientUnits="userSpaceOnUse"
       r="1"
       cy="0"
       cx="0"
       fy="0"
       fx="0"><stop
         id="stop274"
         offset="0"
         style="stop-opacity:1;stop-color:#4dbd38" /><stop
         id="stop276"
         offset="1"
         style="stop-opacity:1;stop-color:#205013" /></radialGradient><clipPath
       id="clipPath296"
       clipPathUnits="userSpaceOnUse"><path
         id="path294"
         d="m 2044.99,244.141 79.14,304.168 739.66,777.651 h -539.42 l 53.49,205.07 H 3128.3 L 3062.51,1246.84 2311,449.211 h 537.93 l -52.01,-205.07 z" /></clipPath><linearGradient
       id="linearGradient304"
       spreadMethod="pad"
       gradientTransform="matrix(-596.471,-1148.68,1148.68,-596.471,3047.4,1773.45)"
       gradientUnits="userSpaceOnUse"
       y2="0"
       x2="1"
       y1="0"
       x1="0"><stop
         id="stop298"
         offset="0"
         style="stop-opacity:1;stop-color:#4f4c4d" /><stop
         id="stop300"
         offset="0.23283468"
         style="stop-opacity:1;stop-color:#4f4c4d" /><stop
         id="stop302"
         offset="1"
         style="stop-opacity:1;stop-color:#231f20" /></linearGradient></defs><g
     transform="matrix(1.3333333,0,0,-1.3333333,0,281.90667)"
     id="g10"><g
       transform="scale(0.1)"
       id="g12"><g
         id="g14"><g
           clip-path="url(#clipPath20)"
           id="g16"><path
             id="path30"
             style="fill:url(#radialGradient28);fill-opacity:1;fill-rule:nonzero;stroke:none"
             d="m 1373.57,985.32 c 0,-248.281 -201.28,-449.55 -449.55,-449.55 -248.274,0 -449.543,201.269 -449.543,449.55 0,248.27 201.269,449.54 449.543,449.54 248.27,0 449.55,-201.27 449.55,-449.54" /></g></g><g
         id="g32"><g
           clip-path="url(#clipPath38)"
           id="g34"><path
             id="path50"
             style="fill:url(#radialGradient48);fill-opacity:1;fill-rule:nonzero;stroke:none"
             d="M 203.117,1145.25 C -8.18359,873.051 -52.5625,553.16 89.9844,312.621 280.824,-9.39844 773.316,-77.2109 1234.14,136.988 552.027,295.621 254.371,704.328 203.117,1145.25" /></g></g><path
         id="path52"
         style="fill:#231f20;fill-opacity:1;fill-rule:nonzero;stroke:none"
         d="M 1236.93,149.012 C 1112.12,177.73 989.602,217.211 873.629,271.238 757.945,325.469 648.012,393.191 552.598,478.461 456.918,563.309 376.82,665.559 317.328,779.102 257.652,892.66 220.344,1017.64 203.117,1145.25 215.453,1016.99 250.426,890.43 307.59,774.18 364.414,657.641 445.148,553.109 540.641,465.262 636.34,377.41 746.516,305.75 863.988,250.68 970.469,200.398 1082.31,162.41 1196.23,133.641 1125.37,103.09 1052.07,78.3281 977.164,60.3398 890.742,39.4492 802.164,26.9102 713.32,25.9805 624.59,24.9609 535.52,35.2188 450.484,59.9609 365.609,84.6797 284.738,124.5 216.895,180.91 182.996,209.012 152.219,240.93 126.027,276.422 99.9844,311.551 77.9648,350.852 60.9297,391.441 26.5156,473 11.7031,562.57 15.0156,651.379 18.3359,740.309 38.0586,828.641 71.0703,911.77 103.961,995.02 149.43,1073.23 203.117,1145.25 146.777,1075.25 98.9375,997.949 63.7695,914.738 28.6328,831.738 5.36719,742.801 0.929688,652 -3.86328,561.41 9.80078,469.211 44.0156,384.488 77.7852,299.77 132.266,222.648 202.621,163.801 272.883,104.781 356.469,63.1914 443.801,37.2891 531.324,11.3203 622.688,0.371094 713.547,0.960938 895.727,2.01172 1075.4,49.1094 1239.34,125.77 l 32.51,15.21 -34.92,8.032" /><g
         id="g54"><g
           clip-path="url(#clipPath60)"
           id="g56"><path
             id="path68"
             style="fill:url(#radialGradient66);fill-opacity:1;fill-rule:nonzero;stroke:none"
             d="m 1899.17,1351.58 c -119.63,206.07 -356.25,332.12 -636.32,326.48 472.54,-598.4 226.12,-1243.591 39.59,-1509.279 25.26,12.77 50.41,26.149 75.36,40.637 497.15,288.691 727.12,787.832 521.37,1142.162" /></g></g><path
         id="path70"
         style="fill:#245816;fill-opacity:1;fill-rule:nonzero;stroke:none"
         d="m 1964.37,1179.97 c -11.97,60.35 -34.09,118.61 -65.2,171.61 30.69,-53.25 52.29,-111.61 63.75,-171.9 11.54,-60.27 13.05,-122.28 6.14,-183.141 C 1955.42,874.328 1907.8,758.051 1843,654.621 1777.94,550.898 1695.17,459.031 1602.41,379.719 c -81.6,-69.789 -171.34,-129.731 -265.8,-180.328 65.79,102.148 115.77,213.757 152.15,329.429 39.83,130.211 60.32,266.59 58.33,402.84 -1.52,136.28 -28.21,272.05 -76.86,398.95 -47.45,124.28 -116.06,239.62 -198.54,343.15 59.32,1.17 118.84,-3.31 177.19,-14.7 61.23,-11.82 120.91,-31.76 177.11,-58.87 56.16,-27.17 108.75,-61.99 155.11,-103.89 46.36,-41.85 86.46,-90.75 118.07,-144.72 -31.19,54.21 -70.94,103.49 -117.08,145.8 -46.14,42.38 -98.63,77.71 -154.81,105.45 -56.17,27.87 -116.15,47.69 -177.43,61.03 -61.33,13.25 -124.25,19.1 -187.07,18.51 l -8.67,-0.08 5.36,-6.92 c 82.33,-106.36 149.72,-224.41 194.99,-350.64 45.57,-126.07 68.21,-259.73 69.39,-393.32 1.05,-133.75 -20.62,-267.23 -60,-394.922 -39.02,-127.707 -95.1,-251.168 -170.75,-361.117 l -25.38,-36.902 39.89,20.133 c 55.22,27.839 108.6,59.636 159.5,94.687 51.03,34.922 99.92,72.973 146.07,114.07 92.19,82.18 173.87,176.743 237.3,282.672 63.21,105.707 108.21,223.528 121.54,346.168 6.45,61.201 4.41,123.441 -7.65,183.771" /><g
         id="g72"><g
           clip-path="url(#clipPath78)"
           id="g74"><path
             id="path88"
             style="fill:url(#radialGradient86);fill-opacity:1;fill-rule:nonzero;stroke:none"
             d="M 881.773,1432.4 C 653.305,1411.11 474.477,1218.85 474.477,984.809 c 0,-40.95 5.48,-80.629 15.734,-118.329 10.121,-24.402 21.019,-48.742 32.68,-72.921 13.422,-27.829 27.578,-54.399 42.422,-79.739 72.238,-95.461 181.71,-161.199 306.796,-175.582 -137.312,334.563 -119.39,659.272 9.664,894.162" /></g></g><g
         id="g90"><g
           clip-path="url(#clipPath96)"
           id="g92"><path
             id="path106"
             style="fill:url(#radialGradient104);fill-opacity:1;fill-rule:nonzero;stroke:none"
             d="M 931.09,463.289 C 604.941,928.48 666.984,1448.4 994.805,1678.24 1183.78,1810.74 1388.65,1811.66 1624.85,1727.7 1297.6,2105.04 836.578,2203.94 540.305,1991.84 225.152,1766.21 197.141,1180.2 523.313,715 661.461,517.961 832.832,409.98 1023.83,344.59 991.5,381.91 960.449,421.441 931.09,463.289" /></g></g><path
         id="path108"
         style="fill:#3871c1;fill-opacity:1;fill-rule:nonzero;stroke:none"
         d="m 1633.35,1735.07 c -89.4,103.56 -195.13,193.96 -314.95,261.37 -119.39,67.27 -253.76,112.13 -392.189,117.3 -68.981,2.74 -138.609,-4.47 -205.352,-23.01 -66.707,-18.46 -130.339,-48.52 -186.57,-88.96 -56.512,-40.52 -104.113,-92.75 -140.773,-151.3 -36.68,-58.64 -63.082,-123.08 -80.75,-189.4 -35.25,-133.02 -36.871,-272.76 -15.598,-407.36 21.496,-134.85 66.32,-265.44 129.531,-385.929 C 490.367,747.809 570.031,634.871 671.738,544.18 772.988,453.031 895.168,387.43 1023.7,344.199 l 1.45,-0.488 -1,1.16 c -32.998,37.848 -64.091,77.379 -93.06,118.418 28.441,-40.758 59,-80.059 91.42,-117.769 -127.674,43.91 -248.705,109.898 -348.725,200.949 -50.332,45.359 -95.5,96.383 -135.324,151.101 -39.539,55.059 -74.738,113.141 -105.344,173.52 -61.148,120.711 -103.699,250.94 -123.035,384.58 -19.144,133.37 -15.394,271.04 20.91,400.4 18.172,64.51 44.77,126.68 80.942,182.69 35.988,56.01 81.621,105.86 135.812,144.14 54.207,38.54 115.375,67.01 179.559,84.39 64.211,17.46 131.269,24.03 197.847,21.02 133.428,-6.35 264.128,-48.36 381.148,-113.5 104.98,-58.28 199.36,-134.94 281.41,-222.95 -66.95,21.01 -136.06,36.02 -206.43,41.03 -84.59,6.15 -171.11,-4.1 -250.68,-34.21 -79.56,-29.97 -151.912,-77.14 -212.651,-135.93 C 857.25,1563.78 809.289,1492.37 775.824,1415.08 742.25,1337.75 722.98,1254.7 716.352,1171.02 709.645,1087.29 714.965,1002.79 730.816,920.43 762.438,755.41 834.645,599.961 931.09,463.289 835.414,600.5 764.23,756.23 733.637,920.969 c -15.203,82.191 -20.457,166.431 -12.68,249.651 7.797,83.13 28.16,165.18 62.441,241.11 34.184,75.88 82.473,145.43 142.832,202.4 60.348,56.76 132.04,101.92 209.74,129.85 77.78,28.1 161.6,36.77 243.83,29.61 82.46,-6.86 163.11,-28.73 241.28,-56.49 l 40.1,-14.24 -27.83,32.21" /><path
         id="path110"
         style="fill:#231f20;fill-opacity:1;fill-rule:nonzero;stroke:none"
         d="m 3170.12,1538.53 h -765.67 l -68.31,-220.07 h 531.65 L 2100.87,552.07 2003.18,236.641 h 9.7 757.76 l 66.72,220.07 h -530.21 l 779.96,786.469 83.01,295.35" /><path
         id="path112"
         style="fill:#231f20;fill-opacity:1;fill-rule:nonzero;stroke:none"
         d="m 3521.68,1449.37 h -227.99 l -64.67,-211.16 h 228 l 64.66,211.16" /><path
         id="path114"
         style="fill:#231f20;fill-opacity:1;fill-rule:nonzero;stroke:none"
         d="m 3205.36,1161.08 -1.72,-5.63 -281.92,-918.809 h 227.99 l 283.65,924.439 h -228" /><path
         id="path116"
         style="fill:#1b401f;fill-opacity:1;fill-rule:nonzero;stroke:none"
         d="m 4039.71,516.34 -0.05,-0.012 v 0 z" /><path
         id="path118"
         style="fill:#231f20;fill-opacity:1;fill-rule:nonzero;stroke:none"
         d="m 4040.39,917.141 -52.32,-167.473 -0.04,-0.137 c -2.13,-7.781 -5.61,-13.832 -10.53,-18.73 -4.93,-4.891 -11.46,-8.731 -20.05,-11.41 L 3641.54,625 l 95.25,316.012 h 288.4 c 3.5,-0.012 5.99,-0.672 7.87,-1.711 1.84,-1.031 3.27,-2.481 4.54,-4.813 2.4,-5.449 3.34,-10.25 3.13,-14.476 -0.05,-0.981 -0.17,-1.934 -0.34,-2.871 z m 177.69,183.789 c -38.03,40.07 -88.45,60.22 -149.49,60.15 H 3576.85 L 3293.5,236.641 h 229.47 l 41.47,134.988 475.22,144.699 c 37.74,11.192 69.49,29.461 94.72,54.762 25.25,25.289 43.87,57.5 55.92,96.14 l 0.04,0.122 71.63,227.148 c 6.01,18.41 9.48,36.418 10.34,54.012 3,60.128 -15.23,111.518 -54.23,152.418 v 0" /><path
         id="path120"
         style="fill:#1b401f;fill-opacity:1;fill-rule:nonzero;stroke:none"
         d="m 4261.99,894.57 -0.02,-0.07 c 0,0 0,0 0,-0.012 l 0.02,0.082" /><path
         id="path122"
         style="fill:#193f0e;fill-opacity:1;fill-rule:nonzero;stroke:none"
         d="m 4791.67,1161.08 59.56,185.75 h -228.09 l -58.08,-185.75 h -108.4 l -62.54,-191.842 h 113.11 L 4281.37,236.641 h 226.53 l 224.36,732.597 h 129.18 l 62.53,191.842 h -132.3" /><path
         id="path124"
         style="fill:#193f0e;fill-opacity:1;fill-rule:nonzero;stroke:none"
         d="m 5556.22,886.418 -0.16,-0.539 -0.08,-0.551 v 0 c -0.1,-0.578 -1.13,-5.527 -4.93,-10.969 -3.85,-5.449 -10.2,-11.55 -22.3,-15.281 l 0.03,0.012 -319.01,-95.731 42.66,146.262 0.01,0.047 c 3.3,11.672 8.51,19.492 15.54,24.711 7.05,5.191 16.52,8.101 29.28,8.121 h 219.34 c 15.51,-1.898 26,-6.73 32.43,-13.711 6.45,-7.039 9.65,-16.758 9.02,-30.809 -0.22,-4.449 -0.86,-8.312 -1.83,-11.562 z m 186.37,217.622 -0.06,0.06 c -41.92,38.84 -92.58,58.52 -150.74,58.47 h -326.92 c -48.12,0.03 -92.74,-14.98 -132.96,-44.64 l -0.09,-0.06 -0.09,-0.07 c -38.07,-29.7 -64.57,-68.44 -78.99,-115.4 l -0.02,-0.05 L 4903,503.039 v 0 c -5.93,-18.309 -9.35,-35.777 -10.15,-52.348 -1.79,-36.722 0.76,-68.652 7.84,-95.839 7.07,-27.172 18.72,-49.633 35.1,-66.961 16.37,-17.332 37.94,-30.192 64.29,-38.653 26.36,-8.457 57.52,-12.597 93.5,-12.597 h 438.16 l 68.12,220.07 H 5138.4 c -7.27,0.019 -11.2,1.758 -13.44,4.117 -2.24,2.352 -3.79,6.402 -3.46,13.692 l 0.25,5.082 9.27,32.168 478.34,143.191 v 0 h 0.01 l 0.03,0.008 -0.03,-0.008 c 38.24,11.219 70.84,29.769 97.31,55.551 v 0.008 c 26.59,25.89 44.95,58.621 55.01,97.531 l -0.01,-0.071 23.59,87.86 v 0 c 2.4,8.09 4.58,16.64 6.53,25.691 v 0 c 1.97,9.137 3.7,19.258 5.26,30.34 l 0.01,0.109 0.01,0.051 c 0.57,4.867 0.98,9.68 1.21,14.449 2.64,52.67 -16.25,99.06 -55.62,137.48 l -0.08,0.08" /><path
         id="path126"
         style="fill:#193f0e;fill-opacity:1;fill-rule:nonzero;stroke:none"
         d="M 6062.14,511.219 6179.61,908 l 0.02,0.07 c 3.29,11.711 8.5,19.571 15.54,24.789 7.05,5.219 16.52,8.129 29.27,8.153 h 413.01 l 66.52,220.068 h -508.94 c -48.12,0.03 -92.78,-14.97 -133.02,-44.62 -39.37,-28.71 -66.62,-67.57 -81.18,-115.57 L 5831.78,503.039 v 0 c -5.95,-18.309 -9.39,-35.777 -10.2,-52.348 -3.04,-61.089 15.14,-112.992 54.15,-153.902 38.03,-40.07 88.45,-60.23 149.5,-60.148 h 398.1 l 68.11,220.07 h -390.12 c -15.68,0.019 -25.83,3.867 -32.07,10.449 -6.25,6.578 -9.59,16.969 -8.85,32.711 0.24,5.52 1,9.481 1.64,11.09 l 0.1,0.258" /><path
         id="path128"
         style="fill:#1b401f;fill-opacity:1;fill-rule:nonzero;stroke:none"
         d="m 6061.99,1116.45 0.02,0.01 h 0.01 z" /><path
         id="path130"
         style="fill:#231f20;fill-opacity:1;fill-rule:nonzero;stroke:none"
         d="m 1932.23,11.5508 42,117.1482 c 0.92,2.582 2.52,4.699 4.82,6.391 2.3,1.691 4.73,2.539 7.3,2.539 h 90.75 c 2.57,0 4.38,-0.848 5.43,-2.539 1.06,-1.692 1.13,-3.809 0.2,-6.391 l -3.16,-8.82 c -0.92,-2.57 -2.51,-4.688 -4.76,-6.34 -2.26,-1.668 -4.67,-2.5 -7.24,-2.5 h -64.26 l -35.66,-99.4882 c -0.87,-2.44142 -2.48,-4.50002 -4.8,-6.15236 -2.31,-1.66016 -4.69,-2.48828 -7.13,-2.48828 h -17.66 c -2.44,0 -4.25,0.82812 -5.41,2.48828 -1.16,1.65234 -1.29,3.71094 -0.42,6.15236" /><path
         id="path132"
         style="fill:#231f20;fill-opacity:1;fill-rule:nonzero;stroke:none"
         d="m 2126.55,59.4688 h 34.28 c 10.53,0 19.14,1.7695 25.86,5.3125 6.72,3.539 11.89,10.3593 15.52,20.4804 3.62,10.1094 3.34,16.9373 -0.84,20.4763 -4.17,3.543 -11.52,5.301 -22.05,5.301 h -34.29 z m -52.53,-47.7188 41.93,116.949 c 0.87,2.449 2.46,4.539 4.79,6.301 2.32,1.75 4.69,2.629 7.13,2.629 h 71.69 c 37.84,0 50.5,-17.457 38.02,-52.3673 -12.48,-34.9336 -37.67,-52.3828 -75.57,-52.3828 h -45 L 2109.44,11.75 c -0.88,-2.44922 -2.49,-4.53906 -4.83,-6.26172 -2.34,-1.71875 -4.73,-2.57812 -7.18,-2.57812 h -17.65 c -2.44,0 -4.24,0.85937 -5.38,2.57812 -1.14,1.72266 -1.26,3.8125 -0.38,6.26172" /><path
         id="path134"
         style="fill:#231f20;fill-opacity:1;fill-rule:nonzero;stroke:none"
         d="m 2277.57,128.691 c -0.07,1.2 0.06,2.329 0.42,3.399 0.35,1.058 0.96,2.031 1.85,2.91 1.63,1.75 3.66,2.629 6.1,2.629 h 19.82 c 6.02,0 9.16,-2.848 9.44,-8.551 l 1.44,-26.109 c 0.48,-7.5784 2.45,-13.2385 5.94,-16.969 3.49,-3.7187 9.18,-5.5898 17.07,-5.5898 h 11.56 l 34.38,48.4878 c 1.85,2.692 4.14,4.813 6.89,6.391 2.76,1.563 5.41,2.34 7.98,2.34 h 18.99 c 2.44,0 3.95,-0.848 4.54,-2.539 0.32,-1 0.27,-2.121 -0.18,-3.379 -0.29,-0.813 -0.77,-1.68 -1.42,-2.633 L 2360.34,41.4297 C 2351.66,29.0898 2341.84,19.5898 2330.86,12.9102 2319.89,6.25 2306.7,2.91016 2291.29,2.91016 h -22.63 c -2.45,0 -4.26,0.80859 -5.43,2.41797 -1.18,1.63281 -1.35,3.58203 -0.53,5.88277 l 3.58,9.9805 c 0.82,2.2969 2.37,4.2578 4.65,5.8789 2.27,1.6094 4.69,2.418 7.26,2.418 h 3 c 1.69,0 4.27,0 7.75,0 3.47,0 6.16,0 8.04,0 h 1.97 c 12.46,0 23.88,8.1133 34.28,24.3398 h -8.09 c -15.78,0 -26.93,3.2227 -33.46,9.6407 -6.53,6.4296 -10.36,16.8828 -11.5,31.371 l -2.61,33.8512" /><path
         id="path136"
         style="fill:#231f20;fill-opacity:1;fill-rule:nonzero;stroke:none"
         d="m 2414.1,11.75 41.93,116.949 c 0.88,2.449 2.47,4.539 4.79,6.301 2.33,1.75 4.7,2.629 7.14,2.629 h 121.95 c 2.45,0 4.21,-0.879 5.31,-2.629 1.09,-1.762 1.2,-3.852 0.33,-6.301 L 2553.62,11.75 c -0.88,-2.44922 -2.51,-4.53906 -4.92,-6.26172 -2.4,-1.71875 -4.82,-2.57812 -7.27,-2.57812 h -17.47 c -2.44,0 -4.24,0.85937 -5.37,2.57812 -1.14,1.72266 -1.27,3.8125 -0.39,6.26172 l 35.59,99.289 h -68.67 l -35.6,-99.289 c -0.87,-2.44922 -2.49,-4.53906 -4.82,-6.26172 -2.34,-1.71875 -4.74,-2.57812 -7.18,-2.57812 h -17.65 c -2.45,0 -4.24,0.85937 -5.38,2.57812 -1.14,1.72266 -1.26,3.8125 -0.39,6.26172" /><path
         id="path138"
         style="fill:#231f20;fill-opacity:1;fill-rule:nonzero;stroke:none"
         d="m 2598.38,11.75 41.93,116.949 c 0.87,2.449 2.47,4.539 4.79,6.301 2.32,1.75 4.7,2.629 7.14,2.629 h 121.95 c 2.44,0 4.21,-0.879 5.3,-2.629 1.1,-1.762 1.21,-3.852 0.33,-6.301 L 2737.89,11.75 c -0.88,-2.44922 -2.51,-4.53906 -4.91,-6.26172 -2.41,-1.71875 -4.82,-2.57812 -7.27,-2.57812 h -17.47 c -2.45,0 -4.24,0.85937 -5.37,2.57812 -1.14,1.72266 -1.28,3.8125 -0.4,6.26172 l 35.6,99.289 H 2669.4 L 2633.8,11.75 c -0.88,-2.44922 -2.49,-4.53906 -4.83,-6.26172 -2.33,-1.71875 -4.73,-2.57812 -7.17,-2.57812 h -17.66 c -2.44,0 -4.23,0.85937 -5.37,2.57812 -1.14,1.72266 -1.27,3.8125 -0.39,6.26172" /><path
         id="path140"
         style="fill:#231f20;fill-opacity:1;fill-rule:nonzero;stroke:none"
         d="m 2839.41,62 h 59.44 l 17.58,49.039 h -26.68 c -6,0 -11.83,-1.711 -17.52,-5.129 -5.69,-3.422 -10.35,-8.0194 -13.98,-13.7889 z M 2771.51,11.5508 2827.15,101 c 15.12,24.359 40.29,36.57 75.51,36.629 h 50.64 c 2.32,0 3.93,-0.879 4.84,-2.629 0.9,-1.762 0.94,-3.789 0.11,-6.102 L 2916.18,11.5508 c -0.87,-2.44142 -2.49,-4.50002 -4.83,-6.15236 -2.35,-1.66016 -4.75,-2.48828 -7.19,-2.48828 h -17.66 c -2.57,0 -4.39,0.82812 -5.45,2.48828 -1.07,1.65234 -1.14,3.77344 -0.22,6.35156 l 8.49,23.6719 h -66.55 l -14.85,-23.7305 c -1.55,-2.56249 -3.72,-4.65234 -6.51,-6.31249 -2.79,-1.64063 -5.42,-2.46875 -7.87,-2.46875 h -18.62 c -2.45,0 -4.01,0.85156 -4.66,2.53906 -0.48,1.12891 -0.46,2.40234 0.06,3.85156 0.31,0.6875 0.7,1.43752 1.19,2.25002" /><path
         id="path142"
         style="fill:#231f20;fill-opacity:1;fill-rule:nonzero;stroke:none"
         d="m 3046.18,11.75 41.93,116.949 c 0.93,2.582 2.56,4.699 4.91,6.391 2.35,1.691 4.85,2.539 7.51,2.539 h 17.08 c 2.52,0 4.37,-0.848 5.54,-2.539 1.18,-1.692 1.33,-3.75 0.45,-6.192 l -33.71,-94.0464 87.64,93.8474 c 2.33,2.449 5.07,4.539 8.23,6.301 3.16,1.75 5.82,2.629 7.96,2.629 h 27.99 c 2.47,0 4.25,-0.879 5.33,-2.629 1.08,-1.762 1.18,-3.852 0.3,-6.301 L 3185.41,11.75 c -0.88,-2.44922 -2.53,-4.53906 -4.95,-6.26172 -2.43,-1.71875 -4.91,-2.57812 -7.43,-2.57812 h -17.08 c -2.52,0 -4.36,0.85937 -5.52,2.57812 -1.17,1.72266 -1.32,3.8125 -0.44,6.26172 l 31.26,87.1797 -80.79,-87.1797 c -2.33,-2.44922 -5.13,-4.53906 -8.41,-6.26172 -3.27,-1.71875 -6.14,-2.57812 -8.61,-2.57812 h -31.41 c -2.47,0 -4.28,0.85937 -5.43,2.57812 -1.16,1.72266 -1.29,3.8125 -0.42,6.26172" /><path
         id="path144"
         style="fill:#231f20;fill-opacity:1;fill-rule:nonzero;stroke:none"
         d="m 3227.92,11.75 41.93,116.949 c 0.88,2.449 2.5,4.539 4.89,6.301 2.38,1.75 4.85,2.629 7.42,2.629 h 17.47 c 2.44,0 4.22,-0.879 5.31,-2.629 1.09,-1.762 1.21,-3.852 0.33,-6.301 l -15.15,-42.2693 h 64.62 l 15.16,42.2693 c 0.87,2.449 2.51,4.539 4.9,6.301 2.37,1.75 4.78,2.629 7.22,2.629 h 17.49 c 2.56,0 4.39,-0.879 5.49,-2.629 1.09,-1.762 1.19,-3.852 0.32,-6.301 L 3363.39,11.75 c -0.88,-2.44922 -2.51,-4.53906 -4.91,-6.26172 -2.41,-1.71875 -4.82,-2.57812 -7.27,-2.57812 h -17.48 c -2.44,0 -4.24,0.82812 -5.4,2.48828 -1.16,1.65234 -1.3,3.71094 -0.43,6.15236 l 17.32,48.289 h -64.63 l -17.32,-48.289 c -0.87,-2.44142 -2.48,-4.50002 -4.79,-6.15236 -2.32,-1.66016 -4.7,-2.48828 -7.14,-2.48828 h -17.47 c -2.44,0 -4.26,0.85937 -5.46,2.57812 -1.2,1.72266 -1.37,3.8125 -0.49,6.26172" /><path
         id="path146"
         style="fill:#231f20;fill-opacity:1;fill-rule:nonzero;stroke:none"
         d="m 3392.84,5.44922 c -0.01,0.49219 0.1,1.03125 0.31,1.60156 0.49,1.37891 1.58,2.9375 3.27,4.69922 l 36.9,37.4219 c 5.16,5.1289 10.71,9.8476 16.63,14.1484 5.92,4.2891 11.07,6.8711 15.46,7.7578 -5.37,1.4336 -9.25,3.9024 -11.67,7.4024 -2.4,3.5078 -4.11,7.9492 -5.12,13.3398 l -7.16,36.8987 c -0.37,1.941 -0.29,3.66 0.24,5.16 0.17,0.441 0.38,0.883 0.67,1.312 1.06,1.75 2.82,2.629 5.26,2.629 h 21.7 c 5.63,0 9.06,-3.031 10.27,-9.101 l 5.29,-25.891 c 1.3,-6.6171 3.53,-11.4491 6.64,-14.4764 3.1,-3.043 7.42,-4.5508 12.93,-4.5508 h 4.22 l 16.11,44.9182 c 0.88,2.441 2.5,4.562 4.87,6.383 2.37,1.808 4.78,2.718 7.22,2.718 h 17.76 c 2.44,0 4.2,-0.91 5.27,-2.718 1.07,-1.821 1.17,-3.942 0.3,-6.383 L 3544.1,83.8008 h 4.23 c 5.51,0 10.89,1.5 16.13,4.5 5.25,3 10.9,7.8398 17,14.5272 l 23.93,25.891 c 5.47,6 11.05,9.043 16.7,9.101 h 21.8 c 2.44,0 3.57,-0.879 3.38,-2.629 -0.03,-0.429 -0.12,-0.871 -0.28,-1.312 -0.51,-1.438 -1.67,-3.16 -3.45,-5.16 l -33.62,-36.8987 c -4.87,-5.3906 -9.76,-9.832 -14.68,-13.3398 -4.92,-3.5 -10.62,-5.9688 -17.08,-7.4024 3.82,-0.8867 7.13,-3.4883 9.93,-7.8086 2.79,-4.3281 4.98,-9.0312 6.55,-14.0976 l 9.97,-37.4219 c 0.41,-1.82031 0.42,-3.39062 0.01,-4.69922 -0.2,-0.5625 -0.48,-1.10156 -0.86,-1.60156 -1.23,-1.6875 -3.06,-2.53906 -5.5,-2.53906 h -21.62 c -2.44,0 -4.76,0.85937 -6.97,2.57812 -2.19,1.72266 -3.61,3.8125 -4.24,6.26172 l -7.23,26.1992 c -1.65,6.3906 -3.89,11.1992 -6.71,14.4297 -2.83,3.2227 -7.05,4.832 -12.69,4.832 h -4.23 l -16.36,-45.6601 c -0.88,-2.44142 -2.47,-4.50002 -4.8,-6.15236 -2.31,-1.66016 -4.69,-2.48828 -7.13,-2.48828 h -17.76 c -2.44,0 -4.23,0.82812 -5.35,2.48828 -1.14,1.65234 -1.25,3.71094 -0.38,6.15236 l 16.36,45.6601 h -4.23 c -5.63,0 -11.01,-1.6093 -16.15,-4.832 -5.13,-3.2305 -10.85,-8.0391 -17.15,-14.4297 L 3435.7,11.75 c -2.46,-2.44922 -5.37,-4.53906 -8.78,-6.26172 -3.41,-1.71875 -6.32,-2.57812 -8.76,-2.57812 h -21.61 c -2.45,0 -3.68,0.85156 -3.71,2.53906" /><path
         id="path148"
         style="fill:#231f20;fill-opacity:1;fill-rule:nonzero;stroke:none"
         d="m 3637.7,11.9297 41.93,116.9683 c 0.87,2.442 2.48,4.5 4.85,6.192 2.36,1.691 4.76,2.539 7.2,2.539 H 3800 c 2.44,0 4.21,-0.879 5.32,-2.629 1.08,-1.762 1.19,-3.852 0.31,-6.301 l -3.17,-8.82 c -0.87,-2.449 -2.48,-4.527 -4.81,-6.25 -2.34,-1.719 -4.74,-2.59 -7.18,-2.59 h -81.82 l -9.77,-27.2382 h 70.46 c 2.44,0 4.21,-0.8711 5.32,-2.6016 1.1,-1.7304 1.21,-3.8086 0.33,-6.2695 l -3.17,-8.8594 c -0.89,-2.4492 -2.49,-4.539 -4.83,-6.2695 -2.35,-1.7305 -4.74,-2.5899 -7.18,-2.5899 h -70.46 l -9.93,-27.7226 h 81.64 c 2.44,0 4.19,-0.8399 5.23,-2.5274 1.06,-1.6992 1.15,-3.7617 0.28,-6.1992 l -3.24,-9.0117 c -0.88,-2.44922 -2.5,-4.53906 -4.87,-6.26172 -2.36,-1.71875 -4.78,-2.57812 -7.22,-2.57812 h -107.85 c -2.44,0 -4.23,0.85937 -5.38,2.57812 -1.13,1.72266 -1.23,3.8711 -0.31,6.44142" /><path
         id="path150"
         style="fill:#231f20;fill-opacity:1;fill-rule:nonzero;stroke:none"
         d="m 3798.8,11.75 41.93,116.949 c 0.87,2.449 2.5,4.539 4.89,6.301 2.38,1.75 4.85,2.629 7.42,2.629 h 17.47 c 2.44,0 4.22,-0.879 5.31,-2.629 1.09,-1.762 1.2,-3.852 0.34,-6.301 L 3861,86.4297 h 64.63 l 15.15,42.2693 c 0.87,2.449 2.5,4.539 4.9,6.301 2.37,1.75 4.78,2.629 7.22,2.629 h 17.48 c 2.57,0 4.4,-0.879 5.5,-2.629 1.09,-1.762 1.19,-3.852 0.31,-6.301 L 3934.27,11.75 c -0.88,-2.44922 -2.51,-4.53906 -4.91,-6.26172 -2.4,-1.71875 -4.83,-2.57812 -7.27,-2.57812 h -17.48 c -2.44,0 -4.25,0.82812 -5.4,2.48828 -1.16,1.65234 -1.3,3.71094 -0.43,6.15236 l 17.32,48.289 h -64.63 l -17.32,-48.289 c -0.87,-2.44142 -2.48,-4.50002 -4.79,-6.15236 -2.32,-1.66016 -4.7,-2.48828 -7.14,-2.48828 h -17.47 c -2.44,0 -4.26,0.85937 -5.47,2.57812 -1.19,1.72266 -1.36,3.8125 -0.48,6.26172" /><path
         id="path152"
         style="fill:#231f20;fill-opacity:1;fill-rule:nonzero;stroke:none"
         d="m 3979.1,11.9297 41.94,116.9683 c 0.87,2.442 2.48,4.5 4.84,6.192 2.36,1.691 4.77,2.539 7.21,2.539 h 108.32 c 2.44,0 4.21,-0.879 5.31,-2.629 1.09,-1.762 1.19,-3.852 0.31,-6.301 l -3.16,-8.82 c -0.87,-2.449 -2.48,-4.527 -4.81,-6.25 -2.35,-1.719 -4.74,-2.59 -7.18,-2.59 h -81.83 l -9.76,-27.2382 h 70.45 c 2.45,0 4.21,-0.8711 5.33,-2.6016 1.1,-1.7304 1.21,-3.8086 0.33,-6.2695 l -3.17,-8.8594 c -0.89,-2.4492 -2.49,-4.539 -4.84,-6.2695 -2.34,-1.7305 -4.73,-2.5899 -7.18,-2.5899 h -70.45 l -9.94,-27.7226 h 81.64 c 2.45,0 4.19,-0.8399 5.24,-2.5274 1.05,-1.6992 1.15,-3.7617 0.27,-6.1992 l -3.23,-9.0117 c -0.88,-2.44922 -2.5,-4.53906 -4.87,-6.26172 -2.37,-1.71875 -4.78,-2.57812 -7.22,-2.57812 H 3984.8 c -2.44,0 -4.23,0.85937 -5.38,2.57812 -1.14,1.72266 -1.23,3.8711 -0.32,6.44142" /><path
         id="path154"
         style="fill:#231f20;fill-opacity:1;fill-rule:nonzero;stroke:none"
         d="m 4192.74,59.4688 h 34.28 c 10.53,0 19.14,1.7695 25.86,5.3125 6.72,3.539 11.89,10.3593 15.52,20.4804 3.62,10.1094 3.34,16.9373 -0.84,20.4763 -4.18,3.543 -11.52,5.301 -22.05,5.301 h -34.29 z m -52.53,-47.7188 41.92,116.949 c 0.88,2.449 2.47,4.539 4.8,6.301 2.32,1.75 4.69,2.629 7.14,2.629 h 71.69 c 37.83,0 50.49,-17.457 38.01,-52.3673 -12.48,-34.9336 -37.67,-52.3828 -75.56,-52.3828 h -45 L 4175.63,11.75 c -0.88,-2.44922 -2.49,-4.53906 -4.83,-6.26172 -2.34,-1.71875 -4.73,-2.57812 -7.17,-2.57812 h -17.66 c -2.44,0 -4.23,0.85937 -5.38,2.57812 -1.13,1.72266 -1.26,3.8125 -0.38,6.26172" /><path
         id="path156"
         style="fill:#231f20;fill-opacity:1;fill-rule:nonzero;stroke:none"
         d="m 4312.55,11.75 41.93,116.949 c 0.87,2.449 2.5,4.539 4.89,6.301 2.38,1.75 4.85,2.629 7.42,2.629 h 17.47 c 2.44,0 4.22,-0.879 5.31,-2.629 1.09,-1.762 1.2,-3.852 0.34,-6.301 l -15.16,-42.2693 h 64.63 l 15.15,42.2693 c 0.87,2.449 2.5,4.539 4.9,6.301 2.37,1.75 4.78,2.629 7.22,2.629 h 17.48 c 2.57,0 4.4,-0.879 5.5,-2.629 1.09,-1.762 1.19,-3.852 0.31,-6.301 L 4448.02,11.75 c -0.88,-2.44922 -2.51,-4.53906 -4.91,-6.26172 -2.4,-1.71875 -4.83,-2.57812 -7.27,-2.57812 h -17.48 c -2.44,0 -4.25,0.82812 -5.4,2.48828 -1.16,1.65234 -1.3,3.71094 -0.43,6.15236 l 17.32,48.289 h -64.63 l -17.32,-48.289 c -0.87,-2.44142 -2.48,-4.50002 -4.79,-6.15236 -2.32,-1.66016 -4.7,-2.48828 -7.14,-2.48828 h -17.47 c -2.44,0 -4.26,0.85937 -5.47,2.57812 -1.19,1.72266 -1.36,3.8125 -0.48,6.26172" /><path
         id="path158"
         style="fill:#231f20;fill-opacity:1;fill-rule:nonzero;stroke:none"
         d="m 4636.84,11.5508 41.99,117.1482 c 0.88,2.449 2.5,4.539 4.87,6.301 2.37,1.75 4.75,2.629 7.17,2.629 h 17.67 c 2.54,0 4.34,-0.879 5.42,-2.629 1.07,-1.762 1.17,-3.852 0.3,-6.301 L 4672.33,11.75 c -0.88,-2.44922 -2.5,-4.53906 -4.89,-6.26172 -2.38,-1.71875 -4.78,-2.57812 -7.19,-2.57812 h -17.67 c -2.42,0 -4.2,0.82812 -5.34,2.48828 -1.14,1.65234 -1.28,3.71094 -0.4,6.15236 z m -102.26,17.9375 h 38.7 c 10.53,0 17.92,5.9726 22.2,17.9023 4.28,11.9297 1.16,17.8985 -9.36,17.8985 h -38.71 z m -41.72,-17.5586 41.87,116.7693 c 0.92,2.582 2.52,4.699 4.81,6.391 2.31,1.691 4.74,2.539 7.31,2.539 h 17.66 c 2.44,0 4.21,-0.879 5.31,-2.617 1.08,-1.762 1.2,-3.852 0.33,-6.293 l -13.2,-36.8401 h 38.7 c 14.78,0 25.6,-3.9297 32.46,-11.7891 6.85,-7.8593 7.78,-18.7695 2.77,-32.7382 -5,-13.961 -13.77,-24.8711 -26.28,-32.7032 -12.51,-7.82809 -26.13,-11.73824 -40.85,-11.73824 h -65.66 c -2.33,0 -3.99,0.89062 -5.01,2.66797 -1.03,1.79296 -1.09,3.90234 -0.22,6.35157" /><path
         id="path160"
         style="fill:#231f20;fill-opacity:1;fill-rule:nonzero;stroke:none"
         d="m 4704.09,5.62891 c -0.01,0.51172 0.05,1 0.16,1.51172 0.5,1.3789 1.71,2.91017 3.62,4.60937 l 69.01,60.3984 -24.36,56.5506 c -0.72,1.641 -0.84,3.172 -0.31,4.61 0.2,0.57 0.49,1.089 0.85,1.601 1.35,1.809 3.29,2.719 5.87,2.719 h 20.19 c 6.26,0 10.68,-2.969 13.25,-8.93 l 14.02,-32.6873 37.46,32.6873 c 6.75,5.903 13.29,8.871 19.64,8.93 h 20.19 c 2.57,0 3.88,-0.91 3.92,-2.719 0.01,-0.512 -0.08,-1.031 -0.29,-1.601 -0.49,-1.379 -1.7,-2.918 -3.62,-4.61 l -64.9,-56.5506 25.7,-60.3984 c 0.72,-1.6406 0.84,-3.17187 0.32,-4.60937 -0.2,-0.5625 -0.51,-1.07032 -0.92,-1.51172 -1.35,-1.8086 -3.29,-2.71875 -5.86,-2.71875 h -20.01 c -6.27,0 -10.66,2.9414 -13.18,8.83984 L 4789.28,48.2813 4747.52,11.75 c -6.74,-5.89844 -13.24,-8.83984 -19.51,-8.83984 H 4708 c -2.57,0 -3.88,0.91015 -3.91,2.71875" /><path
         id="path162"
         style="fill:#231f20;fill-opacity:1;fill-rule:nonzero;stroke:none"
         d="m 4964.9,11.9297 41.86,116.7693 c 0.87,2.449 2.5,4.582 4.91,6.391 2.41,1.82 4.84,2.73 7.28,2.73 h 17.65 c 2.45,0 4.21,-0.91 5.28,-2.718 1.07,-1.821 1.17,-3.942 0.3,-6.383 l -16.1,-44.9182 h 20.19 c 5.51,0 10.89,1.5 16.14,4.5 5.23,3 10.93,7.8398 17.08,14.5272 l 23.85,25.891 c 5.47,6 11.07,9.043 16.79,9.101 h 21.7 c 2.44,0 3.57,-0.879 3.39,-2.629 -0.04,-0.429 -0.13,-0.871 -0.3,-1.312 -0.5,-1.438 -1.66,-3.16 -3.44,-5.16 l -33.61,-36.8987 c -4.88,-5.3906 -9.77,-9.832 -14.69,-13.3398 -4.92,-3.5 -10.59,-5.9688 -16.99,-7.4024 3.81,-0.8867 7.12,-3.4883 9.93,-7.8086 2.81,-4.3281 4.96,-9.0312 6.46,-14.0976 L 5102.65,11.75 c 0.41,-1.83203 0.38,-3.39062 -0.09,-4.69922 -0.2,-0.57031 -0.49,-1.10937 -0.85,-1.60156 -1.24,-1.6875 -3.07,-2.53906 -5.52,-2.53906 h -21.51 c -2.44,0 -4.76,0.85937 -6.96,2.57812 -2.21,1.72266 -3.65,3.8125 -4.34,6.26172 l -7.15,26.1992 c -1.65,6.3906 -3.9,11.1992 -6.75,14.4297 -2.86,3.2227 -7.1,4.832 -12.74,4.832 h -20.19 l -16.37,-45.6601 c -0.88,-2.44142 -2.48,-4.50002 -4.8,-6.15236 -2.31,-1.66016 -4.69,-2.48828 -7.14,-2.48828 h -17.65 c -2.44,0 -4.22,0.89062 -5.34,2.66797 -1.13,1.79296 -1.23,3.90234 -0.35,6.35157" /><path
         id="path164"
         style="fill:#231f20;fill-opacity:1;fill-rule:nonzero;stroke:none"
         d="m 5200.19,103.801 c -9.05,-7.5315 -16.24,-18.7307 -21.58,-33.6291 -5.35,-14.8828 -6.19,-26.0821 -2.51,-33.5703 3.67,-7.4922 12.57,-11.2305 26.7,-11.2305 14.12,0 25.68,3.7383 34.7,11.2305 9.01,7.4882 16.2,18.6875 21.53,33.5703 5.33,14.8984 6.19,26.0976 2.56,33.6291 -3.64,7.519 -12.5,11.289 -26.63,11.289 -14.12,0 -25.72,-3.77 -34.77,-11.289 z m -56.88,-86.9807 c -8.82,11.211 -8.85,29.0078 -0.1,53.4102 8.74,24.3906 21.54,42.1795 38.39,53.3985 16.87,11.223 37.68,16.82 62.46,16.82 24.77,0 41.55,-5.597 50.33,-16.82 8.8,-11.219 8.82,-29.0079 0.08,-53.3985 C 5285.72,45.8281 5272.93,28.0313 5256.1,16.8203 5239.28,5.60156 5218.48,0 5193.7,0 c -24.77,0 -41.56,5.60156 -50.39,16.8203" /><path
         id="path166"
         style="fill:#231f20;fill-opacity:1;fill-rule:nonzero;stroke:none"
         d="m 5310.63,11.9297 41.79,116.5903 c 0.92,2.57 2.54,4.718 4.89,6.48 2.32,1.75 4.72,2.629 7.18,2.629 h 38.55 c 2.46,0 4.49,-0.879 6.07,-2.629 1.58,-1.762 2.31,-3.852 2.2,-6.301 l -0.82,-80.2185 56.74,80.2185 c 1.62,2.449 3.86,4.539 6.71,6.301 2.83,1.75 5.49,2.629 7.95,2.629 h 38.59 c 2.47,0 4.23,-0.879 5.28,-2.629 1.04,-1.762 1.11,-3.91 0.19,-6.48 l -41.8,-116.5903 c -0.91,-2.57032 -2.57,-4.71876 -4.95,-6.44142 -2.38,-1.71875 -4.83,-2.57812 -7.33,-2.57812 h -17.33 c -2.5,0 -4.32,0.85937 -5.47,2.57812 -1.15,1.72266 -1.25,3.8711 -0.34,6.44142 l 32.9,91.7893 -66.24,-92.3596 c -1.71,-2.30862 -3.95,-4.30862 -6.73,-5.96096 -2.79,-1.66016 -5.4,-2.48828 -7.84,-2.48828 h -13.42 c -2.45,0 -4.45,0.82812 -6.01,2.48828 -1.56,1.65234 -2.4,3.65234 -2.51,5.96096 l 0.07,92.3596 -32.9,-91.7893 c -0.92,-2.57032 -2.58,-4.71876 -4.95,-6.44142 -2.39,-1.71875 -4.82,-2.57812 -7.31,-2.57812 h -17.27 c -2.5,0 -4.35,0.85937 -5.52,2.57812 -1.17,1.72266 -1.29,3.8711 -0.37,6.44142" /><path
         id="path168"
         style="fill:#231f20;fill-opacity:1;fill-rule:nonzero;stroke:none"
         d="m 5527.35,11.75 41.93,116.949 c 0.87,2.449 2.46,4.539 4.79,6.301 2.32,1.75 4.69,2.629 7.13,2.629 h 121.96 c 2.44,0 4.21,-0.879 5.3,-2.629 1.09,-1.762 1.2,-3.852 0.33,-6.301 L 5666.86,11.75 c -0.88,-2.44922 -2.51,-4.53906 -4.92,-6.26172 -2.41,-1.71875 -4.82,-2.57812 -7.27,-2.57812 h -17.47 c -2.44,0 -4.23,0.85937 -5.36,2.57812 -1.14,1.72266 -1.28,3.8125 -0.4,6.26172 l 35.59,99.289 h -68.67 L 5562.77,11.75 c -0.88,-2.44922 -2.49,-4.53906 -4.84,-6.26172 -2.32,-1.71875 -4.72,-2.57812 -7.17,-2.57812 h -17.65 c -2.44,0 -4.24,0.85937 -5.37,2.57812 -1.15,1.72266 -1.27,3.8125 -0.39,6.26172" /><path
         id="path170"
         style="fill:#231f20;fill-opacity:1;fill-rule:nonzero;stroke:none"
         d="m 5768.37,62 h 59.45 l 17.57,49.039 h -26.68 c -5.99,0 -11.83,-1.711 -17.51,-5.129 -5.7,-3.422 -10.36,-8.0194 -13.99,-13.7889 z M 5700.47,11.5508 5756.12,101 c 15.11,24.359 40.29,36.57 75.5,36.629 h 50.65 c 2.31,0 3.93,-0.879 4.83,-2.629 0.9,-1.762 0.95,-3.789 0.11,-6.102 L 5845.15,11.5508 c -0.87,-2.44142 -2.49,-4.50002 -4.83,-6.15236 -2.36,-1.66016 -4.75,-2.48828 -7.19,-2.48828 h -17.67 c -2.57,0 -4.38,0.82812 -5.45,2.48828 -1.06,1.65234 -1.14,3.77344 -0.21,6.35156 l 8.48,23.6719 h -66.55 l -14.84,-23.7305 c -1.55,-2.56249 -3.72,-4.65234 -6.52,-6.31249 -2.79,-1.64063 -5.42,-2.46875 -7.87,-2.46875 h -18.61 c -2.45,0 -4.01,0.85156 -4.67,2.53906 -0.47,1.12891 -0.46,2.40234 0.06,3.85156 0.31,0.6875 0.7,1.43752 1.19,2.25002" /><path
         id="path172"
         style="fill:#231f20;fill-opacity:1;fill-rule:nonzero;stroke:none"
         d="m 5889.98,11.75 41.94,116.949 c 0.87,2.449 2.49,4.539 4.88,6.301 2.38,1.75 4.85,2.629 7.42,2.629 h 17.47 c 2.44,0 4.22,-0.879 5.32,-2.629 1.08,-1.762 1.2,-3.852 0.32,-6.301 l -15.16,-42.2693 h 64.63 l 15.16,42.2693 c 0.88,2.449 2.51,4.539 4.9,6.301 2.37,1.75 4.78,2.629 7.23,2.629 h 17.48 c 2.56,0 4.39,-0.879 5.49,-2.629 1.09,-1.762 1.2,-3.852 0.33,-6.301 L 6025.45,11.75 c -0.88,-2.44922 -2.51,-4.53906 -4.92,-6.26172 -2.4,-1.71875 -4.81,-2.57812 -7.26,-2.57812 h -17.48 c -2.44,0 -4.24,0.82812 -5.4,2.48828 -1.16,1.65234 -1.3,3.71094 -0.43,6.15236 l 17.32,48.289 h -64.63 l -17.31,-48.289 c -0.88,-2.44142 -2.49,-4.50002 -4.8,-6.15236 -2.31,-1.66016 -4.7,-2.48828 -7.14,-2.48828 h -17.47 c -2.44,0 -4.27,0.85937 -5.46,2.57812 -1.2,1.72266 -1.37,3.8125 -0.49,6.26172" /><path
         id="path174"
         style="fill:#231f20;fill-opacity:1;fill-rule:nonzero;stroke:none"
         d="m 6070.22,11.75 41.93,116.949 c 0.92,2.582 2.55,4.699 4.9,6.391 2.36,1.691 4.86,2.539 7.51,2.539 h 17.08 c 2.52,0 4.37,-0.848 5.54,-2.539 1.18,-1.692 1.33,-3.75 0.46,-6.192 l -33.71,-94.0464 87.64,93.8474 c 2.32,2.449 5.06,4.539 8.23,6.301 3.15,1.75 5.81,2.629 7.96,2.629 h 27.98 c 2.48,0 4.25,-0.879 5.34,-2.629 1.07,-1.762 1.17,-3.852 0.29,-6.301 L 6209.45,11.75 c -0.88,-2.44922 -2.53,-4.53906 -4.96,-6.26172 -2.44,-1.71875 -4.91,-2.57812 -7.43,-2.57812 h -17.08 c -2.52,0 -4.35,0.85937 -5.52,2.57812 -1.17,1.72266 -1.31,3.8125 -0.43,6.26172 l 31.25,87.1797 -80.79,-87.1797 c -2.33,-2.44922 -5.13,-4.53906 -8.41,-6.26172 -3.26,-1.71875 -6.13,-2.57812 -8.61,-2.57812 h -31.4 c -2.47,0 -4.29,0.85937 -5.44,2.57812 -1.15,1.72266 -1.29,3.8125 -0.41,6.26172" /><path
         id="path176"
         style="fill:#231f20;fill-opacity:1;fill-rule:nonzero;stroke:none"
         d="m 6348.91,176.059 c 1.14,3.191 3.44,4.793 6.87,4.793 h 7.72 c 3.07,0 4.65,-1.59 4.77,-4.75 0.21,-4.481 3.45,-6.704 9.74,-6.661 6.28,0.028 11.08,2.25 14.4,6.661 2.4,3.16 5.15,4.75 8.3,4.75 h 7.69 c 3.44,0 4.6,-1.602 3.46,-4.793 -3.08,-8.579 -8.4,-15.368 -15.96,-20.379 -7.57,-5.02 -16.07,-7.52 -25.53,-7.52 -9.45,0 -16.17,2.5 -20.13,7.52 -3.97,5.011 -4.41,11.8 -1.33,20.379 z m -96.95,-164.309 41.93,116.949 c 0.92,2.582 2.55,4.699 4.9,6.391 2.36,1.691 4.86,2.539 7.51,2.539 h 17.08 c 2.52,0 4.37,-0.848 5.54,-2.539 1.18,-1.692 1.33,-3.75 0.46,-6.192 l -33.71,-94.0464 87.54,93.8474 c 2.31,2.449 5.05,4.539 8.22,6.301 3.14,1.75 5.8,2.629 7.95,2.629 h 27.94 c 2.46,0 4.23,-0.879 5.31,-2.629 1.07,-1.762 1.17,-3.852 0.3,-6.301 L 6391,11.75 c -0.88,-2.44922 -2.53,-4.53906 -4.96,-6.26172 -2.42,-1.71875 -4.9,-2.57812 -7.42,-2.57812 h -17.08 c -2.52,0 -4.37,0.85937 -5.54,2.57812 -1.15,1.72266 -1.3,3.8125 -0.42,6.26172 l 31.26,87.1797 -80.7,-87.1797 c -2.34,-2.44922 -5.13,-4.53906 -8.4,-6.26172 -3.26,-1.71875 -6.14,-2.57812 -8.6,-2.57812 h -31.35 c -2.46,0 -4.27,0.85937 -5.42,2.57812 -1.16,1.72266 -1.29,3.8125 -0.41,6.26172" /><g
         id="g178"><g
           clip-path="url(#clipPath184)"
           id="g180"><path
             id="path194"
             style="fill:url(#linearGradient192);fill-opacity:1;fill-rule:nonzero;stroke:none"
             d="m 3267.75,1441.87 h 212.5 l -50.52,-196.16 H 3217.22 Z M 3171.16,244.141 h -212.5 l 234.79,909.439 h 212.5 L 3171.16,244.141" /></g></g><path
         id="path196"
         style="fill:#231f20;fill-opacity:1;fill-rule:nonzero;stroke:none"
         d="M 3396.27,1146.08 3165.35,251.641 h -197.01 l 230.92,894.439 z m -447.3,-909.439 h 228 l 1.45,5.621 237.21,918.818 H 3187.64 L 2948.97,236.641" /><path
         id="path198"
         style="fill:#231f20;fill-opacity:1;fill-rule:nonzero;stroke:none"
         d="M 3423.91,1253.21 H 3226.9 l 46.66,181.16 h 197.01 z m -161.98,196.16 -1.44,-5.63 -52.94,-205.53 h 227.99 l 54.39,211.16 h -228" /><g
         id="g200"><g
           clip-path="url(#clipPath206)"
           id="g202"><path
             id="path216"
             style="fill:url(#linearGradient214);fill-opacity:1;fill-rule:nonzero;stroke:none"
             d="m 3639.37,613.98 324.1,98.25 c 18.81,5.938 30.21,17.84 34.18,35.668 l 44.29,167.922 c 0.99,6.918 -0.5,14.348 -4.45,22.289 -3.97,6.922 -10.4,10.403 -19.32,10.403 h -294.23 z m -74.43,539.6 h 485.93 c 59.43,0 108.47,-19.32 147.11,-57.96 39.62,-39.63 59.44,-88.67 59.44,-147.108 0,-16.864 -2.48,-34.184 -7.43,-52.012 l -60.64,-227.359 c -19.83,-75.301 -65.9,-123.852 -138.21,-145.629 l -472.23,-145.953 -34.5,-133.418 h -213.98 l 234.51,909.439" /></g></g><path
         id="path218"
         style="fill:#050606;fill-opacity:1;fill-rule:nonzero;stroke:none"
         d="m 4196.6,667.23 v 0 -0.019 0.019" /><path
         id="path220"
         style="fill:#050606;fill-opacity:1;fill-rule:nonzero;stroke:none"
         d="m 3990.37,749.68 -0.04,-0.149 c -1.75,-7.781 -4.94,-13.832 -9.62,-18.73 -4.7,-4.891 -11.04,-8.742 -19.5,-11.422 L 3649.89,625 l 79.89,316.012 h 288.39 c 3.5,-0.012 6.02,-0.672 7.96,-1.711 1.89,-1.031 3.38,-2.481 4.77,-4.813 2.67,-5.449 3.84,-10.25 3.84,-14.476 0,-0.981 -0.08,-1.934 -0.2,-2.871 z m 53.74,191.961 -0.11,0.199 c -2.57,4.512 -6.25,8.25 -10.76,10.672 -4.5,2.429 -9.65,3.5 -15.07,3.5 H 3718.1 l -89.26,-353.063 12.7,3.852 324.14,98.258 0.05,0.019 c 10.34,3.262 19.11,8.34 25.81,15.34 6.65,6.91 11.11,15.641 13.35,25.57 h 0.01 l 44.41,168.332 0.06,0.442 c 0.25,1.726 0.37,3.488 0.37,5.25 0,7.109 -1.98,14.289 -5.53,21.437 l -0.1,0.192" /><path
         id="path222"
         style="fill:#050606;fill-opacity:1;fill-rule:nonzero;stroke:none"
         d="m 4242.76,898.5 -0.01,-0.039 -60.65,-227.391 v -0.019 c -9.67,-36.66 -25.56,-66.383 -47.62,-89.629 -22.07,-23.242 -50.39,-40.141 -85.5,-50.731 l -0.03,-0.011 -476.26,-147.192 -34.08,-131.847 h -198.5 l 230.64,894.439 h 480.12 c 57.83,-0.08 104.51,-18.56 141.8,-55.76 38.25,-38.36 57.18,-85.05 57.25,-141.808 0,-16.121 -2.37,-32.75 -7.16,-50.012 z m 14.46,-4.012 c 5.11,18.422 7.71,36.422 7.7,54.024 0.08,60.128 -20.65,111.518 -61.64,152.418 -39.97,40.07 -91.38,60.22 -152.41,60.15 h -491.74 l -1.45,-5.63 -236.93,-918.809 h 229.47 l 34.9,134.988 468.24,144.711 -0.06,-0.012 c 37.2,11.192 68.06,29.461 92.06,54.762 24.02,25.289 41.07,57.5 51.24,96.14 l 60.64,227.329 -0.02,-0.071" /><g
         id="g224"><g
           clip-path="url(#clipPath230)"
           id="g226"><path
             id="path238"
             style="fill:url(#radialGradient236);fill-opacity:1;fill-rule:nonzero;stroke:none"
             d="m 4764.13,1153.58 h 132.25 L 4847.35,976.738 H 4718.06 L 4529.34,244.141 h -211.02 l 190.22,732.597 h -112.95 l 49.05,176.842 h 108.47 l 49.04,185.75 h 212.51 l -50.53,-185.75" /></g></g><path
         id="path240"
         style="fill:#245816;fill-opacity:1;fill-rule:nonzero;stroke:none"
         d="M 4841.64,984.238 H 4712.25 L 4523.53,251.641 h -195.51 l 190.21,732.597 h -112.77 l 44.88,161.842 h 108.55 l 49.04,185.75 h 196.91 l -50.52,-185.75 h 9.81 122.39 z m -67.69,176.842 50.52,185.75 h -228.1 l -49.03,-185.75 h -108.4 l -53.21,-191.842 h 113.11 L 4308.62,236.641 h 226.53 l 188.72,732.597 h 129.18 l 53.2,191.842 h -132.3" /><g
         id="g242"><g
           clip-path="url(#clipPath248)"
           id="g244"><path
             id="path256"
             style="fill:url(#radialGradient254);fill-opacity:1;fill-rule:nonzero;stroke:none"
             d="m 5559.14,884.609 c 0.98,3.942 1.48,8.411 1.48,13.371 0,30.7 -16.85,48.04 -50.52,52.02 h -219.93 c -27.75,0 -44.58,-12.891 -50.53,-38.641 l -38.63,-159.007 326.92,99.566 c 28.97,8.941 31.21,32.691 31.21,32.691 z m 47.55,-435.398 -53.49,-205.07 h -432.37 c -70.81,0 -122.47,16.339 -154.96,49.027 -32.46,32.703 -48.69,85.191 -48.69,157.523 0,15.84 2.46,32.7 7.38,50.528 L 5050,1000.52 c 11.81,45.56 35.43,82.71 70.83,111.45 37.62,28.73 79.67,43.1 126.25,43.1 H 5574 c 56.47,0 105.99,-18.88 148.6,-56.59 43.59,-40.72 63.39,-89.37 59.44,-145.929 -1,-10.942 -2.22,-20.883 -3.71,-29.789 -1.49,-8.942 -3.23,-17.371 -5.2,-25.313 l -19.32,-87.859 c -7.95,-37.731 -24.03,-69.012 -48.29,-93.828 -24.29,-24.821 -54.76,-42.703 -91.4,-53.614 l -475.53,-144.449 -8.91,-37.219 v -5.96 c 0,-16.891 8.43,-25.309 25.26,-25.309 h 451.75" /></g></g><path
         id="path258"
         style="fill:#245816;fill-opacity:1;fill-rule:nonzero;stroke:none"
         d="m 5785.73,921.531 v 0 0 0" /><path
         id="path260"
         style="fill:#245816;fill-opacity:1;fill-rule:nonzero;stroke:none"
         d="m 5616.3,654.969 -0.03,-0.008 c -0.01,0 -0.01,0 -0.01,0 l 0.04,0.008" /><path
         id="path262"
         style="fill:#245816;fill-opacity:1;fill-rule:nonzero;stroke:none"
         d="m 5770.93,923.988 c -1.46,-8.758 -3.16,-17 -5.08,-24.726 l -0.02,-0.094 -19.36,-88.008 v -0.019 c -7.72,-36.571 -23.12,-66.379 -46.32,-90.141 -23.35,-23.852 -52.58,-41.051 -88.17,-51.66 l -0.03,-0.012 -479.65,-145.699 -10.12,-42.258 v -6.851 c -0.03,-9.602 2.44,-18.211 8.51,-24.29 6.07,-6.082 14.68,-8.55 24.25,-8.519 h 442.05 l -49.59,-190.07 h -426.57 c -34.83,-0.012 -64.71,4.027 -89.59,11.898 -24.9,7.891 -44.77,19.551 -60.05,34.922 -15.24,15.359 -26.84,35.488 -34.67,60.82 -7.83,25.321 -11.84,55.809 -11.84,91.41 0,15.059 2.34,31.25 7.11,48.528 l 0.02,0.09 125.45,499.332 c 11.47,44.119 34.08,79.649 68.22,107.439 36.43,27.74 76.61,41.45 121.6,41.49 H 5574 c 54.76,-0.06 102.16,-18.11 143.55,-54.64 38.64,-36.25 57.4,-77.84 57.48,-126.45 0,-4.39 -0.16,-8.839 -0.47,-13.351 -0.98,-10.75 -2.19,-20.488 -3.63,-29.141 z m -43.2,179.972 -0.08,0.07 -0.07,0.07 c -43.81,38.84 -95.43,58.52 -153.58,58.47 h -326.92 c -48.13,0.03 -92.02,-14.98 -130.8,-44.64 l -0.09,-0.07 -0.08,-0.06 c -36.63,-29.7 -61.24,-68.44 -73.37,-115.4 l -0.02,-0.05 -125.43,-499.311 v 0 c -5.04,-18.309 -7.61,-35.789 -7.61,-52.348 0.01,-36.722 4.11,-68.652 12.51,-95.839 8.39,-27.172 21.14,-49.633 38.36,-66.961 v 0 c 17.21,-17.332 39.41,-30.192 66.16,-38.653 26.78,-8.457 58.14,-12.597 94.12,-12.597 h 438.16 l 57.41,220.07 h -9.71 -451.75 c -7.26,0.019 -11.29,1.758 -13.64,4.117 -2.35,2.352 -4.09,6.402 -4.12,13.692 v 5.07 l 7.71,32.191 471.38,143.18 c 37.69,11.219 69.38,29.769 94.61,55.551 v 0.008 c 25.33,25.89 42.1,58.621 50.27,97.531 l -0.02,-0.071 19.32,87.86 v 0 c 2.01,8.09 3.77,16.64 5.28,25.691 1.52,9.137 2.77,19.258 3.78,30.34 l 0.01,0.09 v 0.07 c 0.34,4.867 0.51,9.68 0.51,14.449 0.09,52.67 -21.06,99.06 -62.3,137.48" /><path
         id="path264"
         style="fill:#245816;fill-opacity:1;fill-rule:nonzero;stroke:none"
         d="m 5525.72,859.078 -314.32,-95.719 35.54,146.262 0.01,0.047 c 2.73,11.672 7.56,19.492 14.34,24.711 6.8,5.191 16.12,8.101 28.88,8.109 h 219.34 c 15.61,-1.886 26.32,-6.718 33.1,-13.699 6.79,-7.039 10.46,-16.758 10.51,-30.809 0,-4.46 -0.45,-8.32 -1.26,-11.562 l -0.14,-0.539 -0.05,-0.551 v 0 c -0.07,-0.578 -0.86,-5.527 -4.4,-10.969 -3.58,-5.449 -9.63,-11.55 -21.55,-15.281 z m 27.65,80.16 c -10.03,10.301 -24.5,16.102 -42.39,18.203 l -0.44,0.047 h -220.37 c -14.99,0.024 -27.95,-3.508 -38,-11.199 -10.03,-7.648 -16.58,-19.121 -19.81,-33.16 h -0.01 l -41.74,-171.777 339.51,103.386 0.03,0.012 c 16.26,4.969 25.79,14.641 30.7,23.039 4.82,8.18 5.62,14.949 5.74,15.992 1,4.387 1.53,9.098 1.53,14.199 0.05,16.649 -4.71,30.961 -14.75,41.258" /><g
         id="g266"><g
           clip-path="url(#clipPath272)"
           id="g268"><path
             id="path280"
             style="fill:url(#radialGradient278);fill-opacity:1;fill-rule:nonzero;stroke:none"
             d="m 6498.28,449.211 -53.49,-205.07 h -392.31 c -59.45,0 -108.49,19.308 -147.12,57.949 -39.61,39.609 -59.44,89.16 -59.44,148.601 0,15.84 2.48,32.7 7.43,50.528 l 124.82,497.812 c 11.9,46.559 36.18,83.709 72.82,111.449 37.64,28.73 79.73,43.1 126.31,43.1 h 499.31 l -52.02,-205.068 h -407.16 c -27.75,0 -44.59,-12.934 -50.53,-38.75 l -98.08,-396.473 c -0.97,-2.969 -1.48,-7.449 -1.48,-13.418 0,-33.793 16.85,-50.66 50.52,-50.66 h 380.42" /></g></g><path
         id="path282"
         style="fill:#245816;fill-opacity:1;fill-rule:nonzero;stroke:none"
         d="m 6061.54,515.09 0.04,-0.012 c -1.26,-4.219 -1.72,-9.039 -1.74,-15.207 -0.03,-18.043 4.55,-32.992 14.83,-43.301 10.28,-10.3 25.2,-14.89 43.19,-14.859 h 370.71 l -49.58,-190.07 h -386.51 c -57.85,0.07 -104.52,18.55 -141.82,55.75 -38.21,38.32 -57.16,85.507 -57.24,143.3 0,15.047 2.36,31.239 7.15,48.52 l 0.03,0.109 124.84,497.86 c 11.57,45.11 34.77,80.54 70.08,107.33 l 0.02,0.01 c 36.48,27.79 76.73,41.52 121.76,41.56 h 489.67 l -48.21,-190.068 h -401.33 c -15,0.008 -27.97,-3.532 -38.01,-11.25 -10.03,-7.66 -16.57,-19.153 -19.79,-33.211 l -0.01,0.008 z m 14.49,-3.871 98.17,396.812 0.01,0.039 c 2.72,11.711 7.56,19.571 14.34,24.789 6.8,5.211 16.12,8.129 28.88,8.153 h 413 l 55.81,220.068 H 6177.3 c -48.12,0.03 -92.05,-14.97 -130.85,-44.63 -37.97,-28.7 -63.32,-67.57 -75.55,-115.56 l -0.01,-0.03 -124.82,-497.821 h 0.01 c -5.07,-18.309 -7.66,-35.777 -7.66,-52.348 -0.07,-61.089 20.63,-112.992 61.63,-153.902 39.98,-40.078 91.38,-60.23 152.43,-60.148 h 398.1 l 57.41,220.07 h -9.71 -380.42 c -15.67,0.019 -26.01,3.867 -32.57,10.457 -6.57,6.57 -10.42,16.961 -10.45,32.703 -0.02,5.52 0.54,9.481 1.11,11.09 l 0.08,0.258" /><path
         id="path284"
         style="fill:#245816;fill-opacity:1;fill-rule:nonzero;stroke:none"
         d="m 6046.35,1116.38 0.09,0.07 c 0,0 0.01,0 0.01,0 0,0.01 0.01,0.01 0.01,0.01 l -0.11,-0.08" /><path
         id="path286"
         style="fill:#00adef;fill-opacity:1;fill-rule:nonzero;stroke:none"
         d="m 3135.02,957.262 -41.43,-160.492 -2.34,-7.602 c 84.77,35.613 170.68,67.812 257.76,97.023 l 40.58,132.239 c -82.47,-16.79 -167.57,-36.969 -254.57,-61.168" /><path
         id="path288"
         style="fill:#00adef;fill-opacity:1;fill-rule:nonzero;stroke:none"
         d="m 4220.85,1097.72 c -169.39,1.35 -411.27,-7.15 -691.88,-53.59 l -28.46,-110.38 c 233.78,68.48 475.96,117.78 727.36,155.82 -2.26,2.75 -4.58,5.48 -7.02,8.15" /><g
         id="g290"><g
           clip-path="url(#clipPath296)"
           id="g292"><path
             id="path306"
             style="fill:url(#linearGradient304);fill-opacity:1;fill-rule:nonzero;stroke:none"
             d="m 2044.99,244.141 79.14,304.168 739.66,777.651 h -539.42 l 53.49,205.07 H 3128.3 L 3062.51,1246.84 2311,449.211 h 537.93 l -52.01,-205.07 h -751.93" /></g></g><path
         id="path308"
         style="fill:#231f20;fill-opacity:1;fill-rule:nonzero;stroke:none"
         d="m 2293.62,441.711 h 545.67 l -48.2,-190.07 H 2054.7 l 76.2,292.898 750.38,788.921 h -547.2 l 49.58,190.07 h 735.21 l -63.21,-273.02 z m 844.12,1096.819 h -765.67 l -57.41,-220.07 h 531.65 L 2117.36,552.07 2035.29,236.641 h 9.7 757.77 l 55.81,220.07 h -530.2 l 740.99,786.469 68.38,295.35" /><path
         id="path310"
         style="fill:#00adef;fill-opacity:1;fill-rule:nonzero;stroke:none"
         d="M 2357.85,617.641 C 2257.56,558.699 2157.75,492.602 2059.38,418.629 l -56.2,-181.988 h 226.69 c 93.06,80.359 187.53,153.507 283.51,220.07 H 2328.47 L 2642.1,789.699 2357.85,617.641" /></g></g></svg>