<?xml version="1.0" encoding="UTF-8" standalone="no"?>
<svg
   xmlns:dc="http://purl.org/dc/elements/1.1/"
   xmlns:cc="http://creativecommons.org/ns#"
   xmlns:rdf="http://www.w3.org/1999/02/22-rdf-syntax-ns#"
   xmlns:svg="http://www.w3.org/2000/svg"
   xmlns="http://www.w3.org/2000/svg"
   viewBox="0 0 880.4267 282.10666"
   height="282.10666"
   width="880.4267"
   xml:space="preserve"
   id="svg2"
   version="1.1"><metadata
     id="metadata8"><rdf:RDF><cc:Work
         rdf:about=""><dc:format>image/svg+xml</dc:format><dc:type
           rdf:resource="http://purl.org/dc/dcmitype/StillImage" /></cc:Work></rdf:RDF></metadata><defs
     id="defs6"><clipPath
       id="clipPath34"
       clipPathUnits="userSpaceOnUse"><path
         id="path32"
         d="M 2320.57,1334.84 2037.7,241.27 h 193.38 l 1.42,5.539 281.43,1088.031 z" /></clipPath><linearGradient
       id="linearGradient42"
       spreadMethod="pad"
       gradientTransform="matrix(0,-1093.34,1093.34,0,2275.68,1334.67)"
       gradientUnits="userSpaceOnUse"
       y2="0"
       x2="1"
       y1="0"
       x1="0"><stop
         id="stop36"
         offset="0"
         style="stop-opacity:1;stop-color:#58595b" /><stop
         id="stop38"
         offset="0.23283468"
         style="stop-opacity:1;stop-color:#58595b" /><stop
         id="stop40"
         offset="1"
         style="stop-opacity:1;stop-color:#231f20" /></linearGradient><clipPath
       id="clipPath54"
       clipPathUnits="userSpaceOnUse"><path
         id="path52"
         d="m 3122.74,968.898 -0.02,0.051 -0.09,0.102 c -35.05,33.649 -78.09,50.689 -127.59,50.619 h -452.91 l -201.9,-778.4 h 193.39 L 2686.84,833 h 279.57 c 6.35,-0.031 9.71,-1.512 11.62,-3.43 1.92,-1.922 3.42,-5.261 3.45,-11.621 V 813.93 L 2832.31,241.27 h 193.19 l 142.42,553.558 v 0.07 l 0.03,0.063 c 4.25,15.48 6.42,30.609 6.42,45.43 0.05,50.64 -17.31,94.05 -51.63,128.507 z" /></clipPath><linearGradient
       id="linearGradient62"
       spreadMethod="pad"
       gradientTransform="matrix(0,-778.522,778.522,0,2757.71,1019.58)"
       gradientUnits="userSpaceOnUse"
       y2="0"
       x2="1"
       y1="0"
       x1="0"><stop
         id="stop56"
         offset="0"
         style="stop-opacity:1;stop-color:#58595b" /><stop
         id="stop58"
         offset="0.23283468"
         style="stop-opacity:1;stop-color:#58595b" /><stop
         id="stop60"
         offset="1"
         style="stop-opacity:1;stop-color:#231f20" /></linearGradient><clipPath
       id="clipPath78"
       clipPathUnits="userSpaceOnUse"><path
         id="path76"
         d="m 3430.03,427.93 c -12.98,0.031 -21.31,3.211 -26.55,8.441 -5.25,5.231 -8.41,13.617 -8.44,26.609 -0.02,4.54 0.46,7.75 0.9,8.95 l 0.06,0.23 166.99,649.17 0.03,0.13 c 2.26,9.61 6.2,15.92 11.64,20.13 5.46,4.18 13,6.59 23.54,6.62 h 347.07 l 47.33,186.63 h -428.05 c -40.57,0.06 -77.62,-12.64 -110.35,-37.61 -32.03,-24.21 -53.43,-57.05 -63.71,-97.49 L 3201.15,466.012 c -4.27,-15.442 -6.49,-30.184 -6.49,-44.203 -0.05,-51.457 17.42,-95.309 52,-129.797 33.69,-33.793 77.14,-50.821 128.54,-50.742 h 334.58 l 48.7,186.66 h -9.55 z" /></clipPath><radialGradient
       id="radialGradient86"
       spreadMethod="pad"
       gradientTransform="matrix(702.94,0,0,702.94,3642.47,792.46)"
       gradientUnits="userSpaceOnUse"
       r="1"
       cy="0"
       cx="0"
       fy="0"
       fx="0"><stop
         id="stop80"
         offset="0"
         style="stop-opacity:1;stop-color:#00d600" /><stop
         id="stop82"
         offset="0.51632172"
         style="stop-opacity:1;stop-color:#00d600" /><stop
         id="stop84"
         offset="1"
         style="stop-opacity:1;stop-color:#006800" /></radialGradient><clipPath
       id="clipPath98"
       clipPathUnits="userSpaceOnUse"><path
         id="path96"
         d="m 4092.34,472.141 0.05,0.23 222.9,862.469 H 4123.18 L 3897.5,466.012 h 0.02 c -4.27,-15.442 -6.49,-30.184 -6.49,-44.203 -0.07,-51.457 17.44,-95.309 51.98,-129.797 33.71,-33.793 77.15,-50.821 128.56,-50.742 h 142.74 L 4263,427.93 h -136.64 c -12.97,0.031 -21.3,3.211 -26.53,8.441 -5.24,5.231 -8.41,13.59 -8.43,26.609 -0.04,4.54 0.46,7.77 0.89,8.95 z" /></clipPath><radialGradient
       id="radialGradient106"
       spreadMethod="pad"
       gradientTransform="matrix(718.403,0,0,718.403,4142.52,794.92)"
       gradientUnits="userSpaceOnUse"
       r="1"
       cy="0"
       cx="0"
       fy="0"
       fx="0"><stop
         id="stop100"
         offset="0"
         style="stop-opacity:1;stop-color:#00d600" /><stop
         id="stop102"
         offset="0.23283468"
         style="stop-opacity:1;stop-color:#00d600" /><stop
         id="stop104"
         offset="1"
         style="stop-opacity:1;stop-color:#006800" /></radialGradient><clipPath
       id="clipPath118"
       clipPathUnits="userSpaceOnUse"><path
         id="path116"
         d="m 4880.63,774.801 c -3.95,-4.133 -9.35,-7.36 -16.71,-9.571 l -261.74,-79.71 29.33,120.742 0.03,0.078 c 2.25,9.609 6.15,15.898 11.62,20.101 5.46,4.149 13.02,6.559 23.53,6.559 h 183.82 c 12.89,-1.559 21.61,-5.531 27.05,-11.148 5.46,-5.672 8.46,-13.493 8.52,-25.071 0,-3.652 -0.36,-6.801 -1.03,-9.441 l -2.44,-9.77 z m 181.98,-53.641 -0.03,-0.109 16.18,73.699 c 1.69,6.789 3.21,14 4.44,21.609 v -0.019 c 1.31,7.691 2.36,16.199 3.21,25.512 v 0.097 l 0.02,0.082 c 0.25,4.078 0.41,8.129 0.41,12.129 0.08,44.461 -17.79,83.719 -52.59,116.102 l -0.08,0.078 -0.07,0.051 c -36.87,32.709 -80.44,49.329 -129.44,49.279 h -274.07 c -40.57,0.05 -77.64,-12.64 -110.3,-37.639 l -0.11,-0.082 -0.08,-0.051 c -30.9,-25.027 -51.66,-57.738 -61.87,-97.308 L 4353.06,465.961 h 0.02 c -4.23,-15.41 -6.43,-30.152 -6.43,-44.152 0,-61.637 13.77,-107.77 42.97,-137.231 29.25,-29.387 74.74,-43.308 135.13,-43.308 h 368.14 l 48.7,186.66 h -9.51 -378.75 c -5.89,0.031 -8.94,1.441 -10.66,3.129 -1.7,1.722 -3.1,4.769 -3.13,10.722 v 4.129 l 6.29,26.25 394.59,119.852 h -0.04 c 31.76,9.449 58.52,25.097 79.79,46.867 21.39,21.851 35.55,49.512 42.44,82.281 z" /></clipPath><radialGradient
       id="radialGradient126"
       spreadMethod="pad"
       gradientTransform="matrix(564.571,0,0,564.571,4716.7,630.25)"
       gradientUnits="userSpaceOnUse"
       r="1"
       cy="0"
       cx="0"
       fy="0"
       fx="0"><stop
         id="stop120"
         offset="0"
         style="stop-opacity:1;stop-color:#00d600" /><stop
         id="stop122"
         offset="0.40186379"
         style="stop-opacity:1;stop-color:#00d600" /><stop
         id="stop124"
         offset="1"
         style="stop-opacity:1;stop-color:#006800" /></radialGradient><clipPath
       id="clipPath144"
       clipPathUnits="userSpaceOnUse"><path
         id="path142"
         d="m 5277.74,468.91 261.35,81.481 -30.33,-122.461 h -258.1 l 3.25,16.34 v 0.07 l 0.03,0.078 c 1.06,5.844 3.36,10.41 7.13,14.41 3.77,4 9.2,7.41 16.67,10.082 z m 517.96,323.559 c 3.59,11.82 5.23,26.84 5.26,45.429 0.04,50.641 -17.44,94.051 -52,128.543 -33.67,33.759 -76.72,50.819 -127.3,50.739 h -368.23 l -48.7,-186.66 H 5593 c 6.21,-0.059 9.3,-1.571 11.34,-3.801 2.01,-2.129 3.55,-6.199 3.69,-13 L 5594.37,761.52 5200.93,641.871 c -32.12,-9.84 -58.69,-25.422 -79.15,-46.793 -20.51,-21.348 -34.81,-48.359 -42.97,-80.5 L 5009.23,241.27 h 644.29 l 142.24,551.171 z" /></clipPath><radialGradient
       id="radialGradient152"
       spreadMethod="pad"
       gradientTransform="matrix(602.272,0,0,602.272,5400.36,605.12)"
       gradientUnits="userSpaceOnUse"
       r="1"
       cy="0"
       cx="0"
       fy="0"
       fx="0"><stop
         id="stop146"
         offset="0"
         style="stop-opacity:1;stop-color:#00d600" /><stop
         id="stop148"
         offset="0.40186379"
         style="stop-opacity:1;stop-color:#00d600" /><stop
         id="stop150"
         offset="1"
         style="stop-opacity:1;stop-color:#006800" /></radialGradient><clipPath
       id="clipPath168"
       clipPathUnits="userSpaceOnUse"><path
         id="path166"
         d="m 6592.87,840.391 c 0.05,50.64 -17.31,94.05 -51.62,128.507 l -0.07,0.071 -0.06,0.082 c -35.01,33.649 -78.08,50.689 -127.58,50.619 H 5960.65 L 5758.73,241.27 H 5952.1 L 6105.36,833 h 279.57 c 6.32,-0.031 9.68,-1.512 11.61,-3.43 1.92,-1.922 3.41,-5.261 3.44,-11.621 V 813.93 L 6250.8,241.27 H 6444 l 142.45,553.691 h -0.02 c 4.28,15.48 6.44,30.609 6.44,45.43 z" /></clipPath><radialGradient
       id="radialGradient176"
       spreadMethod="pad"
       gradientTransform="matrix(603.978,0,0,603.978,6182.31,613.33)"
       gradientUnits="userSpaceOnUse"
       r="1"
       cy="0"
       cx="0"
       fy="0"
       fx="0"><stop
         id="stop170"
         offset="0"
         style="stop-opacity:1;stop-color:#00d600" /><stop
         id="stop172"
         offset="0.40186379"
         style="stop-opacity:1;stop-color:#00d600" /><stop
         id="stop174"
         offset="1"
         style="stop-opacity:1;stop-color:#006800" /></radialGradient><clipPath
       id="clipPath250"
       clipPathUnits="userSpaceOnUse"><path
         id="path248"
         d="m 1373.56,986.852 c 0,-248.282 -201.27,-449.551 -449.54,-449.551 -248.274,0 -449.543,201.269 -449.543,449.551 0,248.268 201.269,449.538 449.543,449.538 248.27,0 449.54,-201.27 449.54,-449.538 z" /></clipPath><radialGradient
       id="radialGradient258"
       spreadMethod="pad"
       gradientTransform="matrix(318.434,-515.236,-364.657,-225.37,1005.46,963.18)"
       gradientUnits="userSpaceOnUse"
       r="1"
       cy="0"
       cx="0"
       fy="0"
       fx="0"><stop
         id="stop252"
         offset="0"
         style="stop-opacity:1;stop-color:#ffffff" /><stop
         id="stop254"
         offset="0.41503706"
         style="stop-opacity:1;stop-color:#ffffff" /><stop
         id="stop256"
         offset="1"
         style="stop-opacity:1;stop-color:#6d6e71" /></radialGradient><clipPath
       id="clipPath268"
       clipPathUnits="userSpaceOnUse"><path
         id="path266"
         d="M 203.113,1146.78 C -8.18359,874.578 -52.5625,554.691 89.9844,314.148 280.824,-7.87109 773.316,-75.6797 1234.14,138.52 552.027,297.148 254.371,705.859 203.113,1146.78 Z" /></clipPath><radialGradient
       id="radialGradient280"
       spreadMethod="pad"
       gradientTransform="matrix(648.436,382.84,-339.617,575.227,782.134,702.4)"
       gradientUnits="userSpaceOnUse"
       r="1"
       cy="0"
       cx="0"
       fy="0"
       fx="0"><stop
         id="stop270"
         offset="0"
         style="stop-opacity:1;stop-color:#a7a9ac" /><stop
         id="stop272"
         offset="0.005618"
         style="stop-opacity:1;stop-color:#a7a9ac" /><stop
         id="stop274"
         offset="0.252809"
         style="stop-opacity:1;stop-color:#58595b" /><stop
         id="stop276"
         offset="0.42678097"
         style="stop-opacity:1;stop-color:#58595b" /><stop
         id="stop278"
         offset="1"
         style="stop-opacity:1;stop-color:#231f20" /></radialGradient><clipPath
       id="clipPath292"
       clipPathUnits="userSpaceOnUse"><path
         id="path290"
         d="m 1899.17,1353.11 c -119.63,206.07 -356.25,332.12 -636.32,326.48 472.54,-598.4 226.12,-1243.59 39.59,-1509.281 25.26,12.769 50.41,26.152 75.36,40.64 497.15,288.692 727.12,787.832 521.37,1142.161 z" /></clipPath><radialGradient
       id="radialGradient304"
       spreadMethod="pad"
       gradientTransform="matrix(476.737,-345.769,413.993,570.803,1312.78,957.57)"
       gradientUnits="userSpaceOnUse"
       r="1"
       cy="0"
       cx="0"
       fy="0"
       fx="0"><stop
         id="stop294"
         offset="0"
         style="stop-opacity:1;stop-color:#00d600" /><stop
         id="stop296"
         offset="0.005618"
         style="stop-opacity:1;stop-color:#00d600" /><stop
         id="stop298"
         offset="0.252809"
         style="stop-opacity:1;stop-color:#00d600" /><stop
         id="stop300"
         offset="0.42678097"
         style="stop-opacity:1;stop-color:#00d600" /><stop
         id="stop302"
         offset="1"
         style="stop-opacity:1;stop-color:#006800" /></radialGradient><clipPath
       id="clipPath322"
       clipPathUnits="userSpaceOnUse"><path
         id="path320"
         d="M 881.773,1433.93 C 653.305,1412.64 474.477,1220.38 474.477,986.34 c 0,-40.949 5.48,-80.629 15.734,-118.328 10.121,-24.403 21.019,-48.742 32.68,-72.922 13.422,-27.828 27.578,-54.399 42.422,-79.738 72.238,-95.461 181.707,-161.192 306.796,-175.582 -137.312,334.558 -119.39,659.27 9.664,894.16" /></clipPath><radialGradient
       id="radialGradient330"
       spreadMethod="pad"
       gradientTransform="matrix(318.415,-515.204,364.634,225.357,1005.09,962.62)"
       gradientUnits="userSpaceOnUse"
       r="1"
       cy="0"
       cx="0"
       fy="0"
       fx="0"><stop
         id="stop324"
         offset="0"
         style="stop-opacity:1;stop-color:#d3d2d2" /><stop
         id="stop326"
         offset="0.42059215"
         style="stop-opacity:1;stop-color:#d3d2d2" /><stop
         id="stop328"
         offset="1"
         style="stop-opacity:1;stop-color:#5a5b5d" /></radialGradient><clipPath
       id="clipPath340"
       clipPathUnits="userSpaceOnUse"><path
         id="path338"
         d="m 931.09,464.82 c -326.149,465.192 -264.11,985.11 63.715,1214.95 188.975,132.5 393.845,133.42 630.045,49.46 C 1297.6,2106.57 836.578,2205.47 540.305,1993.38 225.152,1767.74 197.141,1181.73 523.313,716.531 661.461,519.488 832.832,411.512 1023.83,346.121 991.5,383.441 960.449,422.969 931.09,464.82 Z" /></clipPath><radialGradient
       id="radialGradient352"
       spreadMethod="pad"
       gradientTransform="matrix(562.999,-910.951,644.723,398.461,1079.43,1177.97)"
       gradientUnits="userSpaceOnUse"
       r="1"
       cy="0"
       cx="0"
       fy="0"
       fx="0"><stop
         id="stop342"
         offset="0"
         style="stop-opacity:1;stop-color:#3fffff" /><stop
         id="stop344"
         offset="0.005618"
         style="stop-opacity:1;stop-color:#3fffff" /><stop
         id="stop346"
         offset="0.252809"
         style="stop-opacity:1;stop-color:#00e6f7" /><stop
         id="stop348"
         offset="0.42678097"
         style="stop-opacity:1;stop-color:#00e6f7" /><stop
         id="stop350"
         offset="1"
         style="stop-opacity:1;stop-color:#0074b8" /></radialGradient></defs><g
     transform="matrix(1.3333333,0,0,-1.3333333,0,282.10667)"
     id="g10"><g
       transform="scale(0.1)"
       id="g12"><path
         id="path14"
         style="fill:#000000;fill-opacity:1;fill-rule:nonzero;stroke:none"
         d="m 2342.79,1341.41 -1.51,-4.93 -337.42,-1101.769 h 206.96 l 3.19,10.461 335.69,1096.238 h -206.91" /><path
         id="path16"
         style="fill:#000000;fill-opacity:1;fill-rule:nonzero;stroke:none"
         d="m 3138.07,972.641 -1,1.058 -0.05,0.051 -0.05,0.02 c -34.44,34.72 -78.46,52.51 -129.35,52.47 h -0.29 -0.07 -457.89 L 2306.39,234.711 h 206.95 l 181.38,591.73 h 274.45 c 5.44,-0.05 6.65,-1.23 6.91,-1.511 l -0.01,0.019 0.05,-0.051 c 0.26,-0.308 1.37,-1.539 1.18,-6.98 l -0.15,-3.148 -178.68,-580.059 h 206.76 l 170.51,559.269 v 0.098 c 4.99,15.703 7.92,31.133 8.64,46.313 l 0.03,0.199 c 2.49,51.539 -13.18,96.41 -46.27,131.82 l -0.07,0.231" /><path
         id="path18"
         style="fill:#004700;fill-opacity:1;fill-rule:nonzero;stroke:none"
         d="m 3387.12,463.031 v 0.309 c 0.11,1.922 0.28,3.558 0.47,4.719 l 0.27,1.359 0.09,0.312 v 0.032 l 0.15,0.328 0.14,0.512 197.93,649.268 0.03,0.15 c 2.45,8.59 5.79,13.18 9.99,16.39 4.25,3.07 10.23,5.18 19.8,5.23 h 352.17 l 60.18,199.77 h -436.45 -0.06 -0.17 c -41.87,0.02 -81.08,-13.21 -115.99,-38.95 h 0.03 c -34.43,-25.05 -58.38,-59.36 -70.94,-101.1 l 0.03,0.12 -224.28,-733.832 h 0.01 c -5.13,-15.867 -8.17,-31.179 -8.88,-45.839 v -0.231 c -2.58,-52.848 13.46,-98.617 47.53,-134.207 33.16,-35 77.67,-52.723 130.39,-52.66 h 0.18 0.05 l 37.33,228.32" /><path
         id="path20"
         style="fill:#004700;fill-opacity:1;fill-rule:nonzero;stroke:none"
         d="m 4083.96,468.059 0.25,1.359 0.11,0.344 v 0 l 0.1,0.25 0.16,0.539 0.01,0.051 v 0.046 l 0.05,0.133 266.42,870.629 H 4145.42 L 3874.35,459.449 h 0.12 c -3.62,-12.961 -5.87,-25.508 -6.44,-37.64 l -0.02,-0.411 c -2.57,-52.769 13.52,-98.488 47.51,-134.027 33.19,-35 77.7,-52.723 130.41,-52.66 h 0.19 0.1 c 0,0 37.53,232.168 37.74,233.348" /><path
         id="path22"
         style="fill:#004700;fill-opacity:1;fill-rule:nonzero;stroke:none"
         d="m 4669.49,826.441 h 183.31 c 11.71,-1.492 18.64,-5.019 22.4,-9.152 3.88,-4.34 6.07,-10 5.7,-20.508 -0.16,-3.242 -0.59,-5.851 -1.21,-7.832 l -2.54,-8.578 -0.94,-1.262 c -3.16,-3.058 -7.45,-5.621 -13.81,-7.539 l -254.58,-76.429 31.77,109.379 0.02,0.019 v 0.082 l 0.05,0.07 v 0 l 0.03,0.137 c 2.49,8.641 5.76,13.231 10,16.41 v -0.027 c 4.18,3.098 10.23,5.199 19.8,5.23 z m -132.46,-359.48 396.66,118.769 v 0.02 c 33.1,9.719 61.69,25.949 84.82,48.539 23.33,22.723 39.41,51.512 48.13,85.18 h 0.03 l 0.01,0.101 v 0 c 0,0.032 0,0.051 0,0.078 h 0.03 l 0.02,0.133 0.03,0.02 v 0 l 19.59,73.359 v 0 c 0,0.02 0,0.02 0,0.051 l 0.06,0.129 v 0 c 2.02,6.89 3.9,14.18 5.5,21.89 h 0.03 c 1.67,7.719 3.1,16.192 4.39,25.36 l 0.07,0.18 0.11,0.851 c 0.46,4.18 0.81,8.359 0.99,12.539 l 0.02,0.281 c 2.27,46.079 -14.6,87.18 -48.78,120.457 v 0 l -0.05,0.082 -0.46,0.461 -0.36,0.25 c -36.2,33.389 -80.49,50.589 -130.68,50.549 h -0.22 -0.1 -273.95 -0.02 -0.19 c -41.86,0.02 -81.09,-13.21 -115.97,-38.978 l 0.05,0.039 -0.1,-0.09 -0.15,-0.109 -0.21,-0.184 v 0 C 4493.19,961.051 4469.96,927 4457.51,886.238 L 4329.95,459.391 h 0.1 c -3.61,-12.922 -5.84,-25.481 -6.43,-37.582 -2.97,-62.52 8.66,-110.559 38.12,-141.848 29.59,-31.152 76.37,-45.25 137.65,-45.25 l 37.64,232.25" /><path
         id="path24"
         style="fill:#004700;fill-opacity:1;fill-rule:nonzero;stroke:none"
         d="m 5265.33,462.68 253.79,77.961 -31.36,-106.141 h -244.95 l 2.08,8.48 0.1,0.321 c 1.11,4.758 2.88,7.859 5.95,11.039 3,3.031 7.58,5.93 14.39,8.34 z m 539.7,334.582 c 3.19,11.437 5.05,24.816 5.82,40.617 l 0.02,0.23 c 2.52,52.082 -13.58,97.411 -47.6,132.961 -33.08,34.96 -77.18,52.72 -129.1,52.67 h -0.35 -0.07 -373.22 l -61.62,-199.791 h 396.72 c 2.59,-0.019 4.15,-0.359 4.97,-0.687 l 1.51,-1 0.03,-0.024 0.02,-0.027 c 0.29,-0.18 1.52,-2.57 1.47,-7.871 L 5588.9,766.719 5193.34,648.16 c -33.5,-10.129 -61.91,-26.289 -84.29,-48.539 -22.43,-22.23 -38.63,-50.383 -48.57,-83.43 l -85.06,-281.48 h 657.85 l 171.88,562.5 -0.12,0.051" /><path
         id="path26"
         style="fill:#004700;fill-opacity:1;fill-rule:nonzero;stroke:none"
         d="m 6602.9,840.59 c 2.51,51.828 -13.32,96.922 -46.75,132.41 l -0.18,0.281 -0.49,0.489 c -34.43,34.72 -78.46,52.51 -129.36,52.47 h -0.28 -0.09 -457.86 L 5724.88,234.711 h 206.95 l 181.41,591.73 h 274.43 c 5.43,-0.05 6.67,-1.23 6.94,-1.511 0.29,-0.309 1.38,-1.539 1.18,-7.012 l -0.15,-3.148 -178.69,-580.059 h 206.79 l 172.79,566.809 h -0.15 c 3.67,13.121 5.9,26.101 6.52,38.871 v 0.199" /><g
         id="g28"><g
           clip-path="url(#clipPath34)"
           id="g30"><path
             id="path44"
             style="fill:url(#linearGradient42);fill-opacity:1;fill-rule:nonzero;stroke:none"
             d="M 2320.57,1334.84 2037.7,241.27 h 193.38 l 1.42,5.539 281.43,1088.031 h -193.36" /></g></g><path
         id="path46"
         style="fill:#231f20;fill-opacity:1;fill-rule:nonzero;stroke:none"
         d="m 2226.15,248.449 -0.16,-0.621 h -179.81 l 279.47,1080.452 h 179.8 z m 89.34,1092.961 -1.27,-4.93 -285,-1101.769 h 206.95 l 2.69,10.461 283.56,1096.238 h -206.93" /><g
         id="g48"><g
           clip-path="url(#clipPath54)"
           id="g50"><path
             id="path64"
             style="fill:url(#linearGradient62);fill-opacity:1;fill-rule:nonzero;stroke:none"
             d="m 3122.74,968.898 -0.02,0.051 -0.09,0.102 c -35.05,33.649 -78.09,50.689 -127.59,50.619 h -452.91 l -201.9,-778.4 h 193.39 L 2686.84,833 h 279.57 c 6.35,-0.031 9.71,-1.512 11.62,-3.43 1.92,-1.922 3.42,-5.261 3.45,-11.621 V 813.93 L 2832.31,241.27 h 193.19 l 142.42,553.558 v 0.07 l 0.03,0.063 c 4.25,15.48 6.42,30.609 6.42,45.43 0.05,50.64 -17.31,94.05 -51.63,128.507" /></g></g><path
         id="path66"
         style="fill:#231f20;fill-opacity:1;fill-rule:nonzero;stroke:none"
         d="m 2982.62,834.23 0.05,-0.019 c 0,0 0,0 -0.01,0.008 l -0.04,0.011" /><path
         id="path68"
         style="fill:#231f20;fill-opacity:1;fill-rule:nonzero;stroke:none"
         d="m 3167.8,840.391 c 0,-13.879 -2.01,-28.102 -5.96,-42.75 l -0.48,-0.743 v -1.257 L 3020.42,247.828 H 2840.8 l 147.24,565.25 v 4.871 0.031 c 0.02,7.25 -1.83,12.688 -5.37,16.219 -3.54,3.563 -8.98,5.371 -16.22,5.371 h -0.04 -284.66 L 2528.54,247.828 h -179.82 l 198.5,765.282 h 447.82 0.03 0.24 c 47.72,-0.06 88.64,-16.258 122.45,-48.52 l 0.33,-0.328 c 33.06,-33.25 49.65,-74.602 49.71,-123.653 z m -39.39,132.019 -0.1,0.231 -1.04,1.058 -0.04,0.031 -0.05,0.051 c -36.11,34.709 -80.97,52.499 -131.87,52.459 h -0.29 -0.02 -457.94 L 2331.75,234.711 h 206.95 l 153.22,591.73 h 274.45 c 5.45,-0.062 6.72,-1.23 7,-1.511 l 0.02,-0.032 c 0.3,-0.308 1.46,-1.539 1.52,-6.98 v -3.156 L 2823.83,234.711 h 206.76 l 143.9,559.269 v 0.098 c 4.24,15.703 6.44,31.133 6.44,46.313 v 0.218 c 0.05,51.512 -17.75,96.411 -52.52,131.801" /><path
         id="path70"
         style="fill:#231f20;fill-opacity:1;fill-rule:nonzero;stroke:none"
         d="m 2982.67,834.211 v -0.012 l 0.01,-0.019 z" /><g
         id="g72"><g
           clip-path="url(#clipPath78)"
           id="g74"><path
             id="path88"
             style="fill:url(#radialGradient86);fill-opacity:1;fill-rule:nonzero;stroke:none"
             d="m 3430.03,427.93 c -12.98,0.031 -21.31,3.211 -26.55,8.441 -5.25,5.231 -8.41,13.617 -8.44,26.609 -0.02,4.54 0.46,7.75 0.9,8.95 l 0.06,0.23 166.99,649.17 0.03,0.13 c 2.26,9.61 6.2,15.92 11.64,20.13 5.46,4.18 13,6.59 23.54,6.62 h 347.07 l 47.33,186.63 h -428.05 c -40.57,0.06 -77.62,-12.64 -110.35,-37.61 -32.03,-24.21 -53.43,-57.05 -63.71,-97.49 L 3201.15,466.012 c -4.27,-15.442 -6.49,-30.184 -6.49,-44.203 -0.05,-51.457 17.42,-95.309 52,-129.797 33.69,-33.793 77.14,-50.821 128.54,-50.742 h 334.58 l 48.7,186.66 h -9.55 -318.9" /></g></g><path
         id="path90"
         style="fill:#006800;fill-opacity:1;fill-rule:nonzero;stroke:none"
         d="m 3389.56,473.34 c -0.35,-1.18 -0.57,-2.289 -0.75,-3.75 -0.2,-1.75 -0.32,-3.828 -0.32,-6.262 v -0.348 c 0,-13.968 3.47,-24.378 10.35,-31.25 6.84,-6.851 17.22,-10.371 31.18,-10.359 l 0.01,6.559 v -6.559 h 318.9 1.05 L 3704.7,247.828 h -329.5 -0.28 c -49.84,0.051 -91.18,16.363 -123.62,48.813 v 0.007 c -33.3,33.293 -50.02,75.02 -50.07,124.93 v 0.184 0.047 c 0,13.332 2.1,27.48 6.26,42.441 l 0.01,0.07 189.36,733.78 v 0.03 c 9.98,39.14 30.45,70.51 61.32,93.86 l 0.05,0.05 c 31.62,24.1 67.02,36.21 106.14,36.24 h 0.16 0.05 419.59 l -44.01,-173.51 H 3598.2 c -11.51,0 -20.69,-2.71 -27.53,-7.96 l -0.02,-0.02 c -6.82,-5.23 -11.58,-13.22 -14.01,-23.82 l -0.02,-0.11 -0.02,-0.07 -166.99,-649.079 -0.08,-0.371 z m 12.05,-10.25 v 0.238 c 0,1.934 0.1,3.563 0.25,4.731 l 0.2,1.359 0.06,0.293 0.14,0.359 0.12,0.539 167.01,649.261 0.04,0.17 c 2.08,8.56 5.19,13.16 9.23,16.35 4.07,3.09 9.97,5.21 19.55,5.25 h 352.16 l 50.66,199.77 h -436.48 -0.18 c -41.87,0.02 -80.45,-13.21 -114.15,-38.95 l 0.02,0.01 c -33.21,-25.07 -55.52,-59.38 -66.1,-101.11 L 3194.79,467.648 c -4.37,-15.867 -6.69,-31.168 -6.69,-45.839 v -0.231 c -0.05,-52.84 18.15,-98.617 53.93,-134.207 34.81,-35 80.18,-52.73 132.89,-52.66 h 0.27 339.67 l 52.11,199.789 h -18.04 -318.89 c -12.02,0.051 -18.28,2.898 -21.92,6.512 -3.61,3.609 -6.46,9.949 -6.51,22 v 0.019 0.059" /><g
         id="g92"><g
           clip-path="url(#clipPath98)"
           id="g94"><path
             id="path108"
             style="fill:url(#radialGradient106);fill-opacity:1;fill-rule:nonzero;stroke:none"
             d="m 4092.34,472.141 0.05,0.23 222.9,862.469 H 4123.18 L 3897.5,466.012 h 0.02 c -4.27,-15.442 -6.49,-30.184 -6.49,-44.203 -0.07,-51.457 17.44,-95.309 51.98,-129.797 33.71,-33.793 77.15,-50.821 128.56,-50.742 h 142.74 L 4263,427.93 h -136.64 c -12.97,0.031 -21.3,3.211 -26.53,8.441 -5.24,5.231 -8.41,13.59 -8.43,26.609 -0.04,4.54 0.46,7.77 0.89,8.95 l 0.05,0.211" /></g></g><path
         id="path110"
         style="fill:#006800;fill-opacity:1;fill-rule:nonzero;stroke:none"
         d="m 4209.24,247.828 h -137.97 c -49.84,0.051 -91.16,16.363 -123.62,48.813 -33.23,33.269 -50,74.988 -50.05,124.808 v 0.332 0.028 c 0,13.332 2.1,27.48 6.24,42.429 l 2.32,8.332 h -0.18 l 222.29,855.71 h 178.54 l -220.78,-854.339 -0.06,-0.211 -0.05,-0.21 h 0.02 c -0.37,-1.239 -0.59,-2.411 -0.77,-3.93 -0.2,-1.762 -0.34,-3.852 -0.34,-6.27 v -0.359 c 0,-13.992 3.5,-24.391 10.36,-31.231 6.85,-6.851 17.22,-10.371 31.16,-10.359 h 128.16 z m -104.77,193.184 c -3.62,3.609 -6.47,9.918 -6.52,21.968 v 0.04 0.3 c 0,1.942 0.11,3.559 0.25,4.739 l 0.2,1.371 0.09,0.332 0.08,0.25 0.15,0.539 v 0.019 l 0.01,0.071 0.03,0.14 225,870.629 h -205.65 l -229.1,-881.961 h 0.15 c -3.03,-12.961 -4.68,-25.508 -4.68,-37.64 v -0.36 c -0.05,-52.789 18.2,-98.519 53.89,-134.09 34.85,-34.988 80.19,-52.718 132.9,-52.648 h 0.29 147.83 L 4271.5,434.5 h -145.14 c -11.98,0.051 -18.28,2.898 -21.89,6.512" /><g
         id="g112"><g
           clip-path="url(#clipPath118)"
           id="g114"><path
             id="path128"
             style="fill:url(#radialGradient126);fill-opacity:1;fill-rule:nonzero;stroke:none"
             d="m 4880.63,774.801 c -3.95,-4.133 -9.35,-7.36 -16.71,-9.571 l -261.74,-79.71 29.33,120.742 0.03,0.078 c 2.25,9.609 6.15,15.898 11.62,20.101 5.46,4.149 13.02,6.559 23.53,6.559 h 183.82 c 12.89,-1.559 21.61,-5.531 27.05,-11.148 5.46,-5.672 8.46,-13.493 8.52,-25.071 0,-3.652 -0.36,-6.801 -1.03,-9.441 l -2.44,-9.77 z m 181.98,-53.641 -0.03,-0.109 16.18,73.699 c 1.69,6.789 3.21,14 4.44,21.609 v -0.019 c 1.31,7.691 2.36,16.199 3.21,25.512 v 0.097 l 0.02,0.082 c 0.25,4.078 0.41,8.129 0.41,12.129 0.08,44.461 -17.79,83.719 -52.59,116.102 l -0.08,0.078 -0.07,0.051 c -36.87,32.709 -80.44,49.329 -129.44,49.279 h -274.07 c -40.57,0.05 -77.64,-12.64 -110.3,-37.639 l -0.11,-0.082 -0.08,-0.051 c -30.9,-25.027 -51.66,-57.738 -61.87,-97.308 L 4353.06,465.961 h 0.02 c -4.23,-15.41 -6.43,-30.152 -6.43,-44.152 0,-61.637 13.77,-107.77 42.97,-137.231 29.25,-29.387 74.74,-43.308 135.13,-43.308 h 368.14 l 48.7,186.66 h -9.51 -378.75 c -5.89,0.031 -8.94,1.441 -10.66,3.129 -1.7,1.722 -3.1,4.769 -3.13,10.722 v 4.129 l 6.29,26.25 394.59,119.852 h -0.04 c 31.76,9.449 58.52,25.097 79.79,46.867 21.39,21.851 35.55,49.512 42.44,82.281" /></g></g><path
         id="path130"
         style="fill:#006800;fill-opacity:1;fill-rule:nonzero;stroke:none"
         d="m 4891.41,785.75 -0.05,-0.219 -0.01,-0.043 z" /><path
         id="path132"
         style="fill:#006800;fill-opacity:1;fill-rule:nonzero;stroke:none"
         d="m 5080.28,854.16 c 0,-3.59 -0.16,-7.262 -0.38,-10.949 L 5079.84,843 v -0.789 c -0.84,-9.09 -1.87,-17.371 -3.12,-24.77 l 0.37,-0.082 -0.38,0.039 c -1.19,-7.418 -2.66,-14.418 -4.32,-21.078 l -0.03,-0.082 -16.13,-73.566 -0.02,-0.024 -0.03,-0.179 c -6.7,-31.719 -20.28,-58.11 -40.7,-79 -20.47,-20.918 -46.11,-35.981 -76.96,-45.18 l -398.21,-120.949 -7.34,-30.672 v -4.887 -0.031 c -0.01,-6.871 1.75,-12.012 5.04,-15.301 l 0.05,-0.039 h -0.03 c 3.3,-3.289 8.46,-5.07 15.29,-5.039 h 0.03 378.73 1 l -45.26,-173.543 h -363.07 c -59.48,0 -103.02,13.742 -130.48,41.371 -27.45,27.629 -41.05,71.852 -41.05,132.61 0,13.312 2.09,27.461 6.19,42.402 l 2.27,8.309 h -0.2 l 103.12,410.46 c 9.92,38.301 29.83,69.641 59.63,93.821 l 0.05,0.019 0.03,0.032 c 31.58,24.098 66.99,36.228 106.1,36.258 h 0.15 274.1 0.05 0.18 c 47.42,-0.03 89.11,-15.981 124.85,-47.649 l 0.12,-0.102 c 33.51,-31.308 50.35,-68.41 50.42,-110.91 z m -41.39,120.738 -0.08,0.082 -0.46,0.461 -0.39,0.25 c -37.79,33.389 -82.89,50.589 -133.07,50.549 h -0.23 -0.05 -274.02 -0.18 c -41.88,0.02 -80.46,-13.21 -114.12,-38.99 l 0.05,0.02 -0.09,-0.059 -0.15,-0.109 -0.21,-0.161 v -0.023 C 4483.98,961.059 4462.36,927 4451.88,886.238 L 4344.63,459.391 h 0.09 c -2.99,-12.922 -4.65,-25.481 -4.65,-37.582 0,-62.52 13.93,-110.559 44.88,-141.86 31.07,-31.14 78.5,-45.258 139.8,-45.238 h 373.2 l 52.13,199.789 h -18 -378.72 c -4.97,0.051 -5.92,1.102 -6.06,1.23 l 0.03,-0.039 c -0.1,0.118 -1.16,1.079 -1.22,6.118 v 3.32 l 5.22,21.84 391.01,118.761 v 0.02 c 32.66,9.719 60.45,25.918 82.52,48.539 22.25,22.699 36.95,51.52 44.08,85.18 h 0.01 l 0.04,0.101 h -0.03 c 0,0.032 0.03,0.051 0.04,0.078 l 0.02,0.102 c 0,0.012 0.02,0.031 0.02,0.051 l 16.13,73.539 c 1.71,6.89 3.24,14.18 4.49,21.89 h 0.01 c 1.31,7.711 2.35,16.192 3.2,25.348 l 0.05,0.184 0.05,0.859 c 0.29,4.18 0.43,8.359 0.43,12.539 v 0.289 c 0.05,46.071 -18.77,87.172 -54.51,120.449" /><path
         id="path134"
         style="fill:#006800;fill-opacity:1;fill-rule:nonzero;stroke:none"
         d="m 4882.29,826.398 c 0.01,-0.007 0.03,-0.039 0.04,-0.046 l 0.08,-0.09 -0.12,0.136" /><path
         id="path136"
         style="fill:#006800;fill-opacity:1;fill-rule:nonzero;stroke:none"
         d="m 4862.12,771.539 -250.86,-76.391 26.59,109.372 0.01,0.019 0.02,0.082 0.02,0.07 v 0 l 0.02,0.137 c 2.08,8.641 5.15,13.223 9.22,16.391 4.07,3.09 10.01,5.191 19.56,5.222 H 4850 c 11.79,-1.492 18.87,-5.019 22.84,-9.152 h -0.01 c 4.09,-4.328 6.57,-10 6.68,-20.527 0,-3.223 -0.32,-5.832 -0.82,-7.813 l -2.16,-8.578 -0.89,-1.262 c -3.04,-3.078 -7.24,-5.668 -13.6,-7.589 z m -214.9,49.75 -0.07,-0.051 v 0 z m 235.06,5.121 c -6.86,7.059 -17.17,11.43 -30.98,13.11 l -0.4,0.05 h -184.21 c -11.47,0.008 -20.66,-2.672 -27.52,-7.922 l -0.01,-0.019 c -6.72,-5.117 -11.35,-12.949 -13.83,-23.231 l -0.02,0.012 -0.03,-0.082 -0.07,-0.25 -32.12,-132.199 272.74,83.07 -0.03,-0.008 c 8.18,2.45 14.73,6.25 19.58,11.321 l 0.34,0.34 0.27,0.386 1.97,2.782 0.72,1.019 2.68,10.742 0.04,0.207 c 0.83,3.293 1.23,6.961 1.23,11.043 v 0.028 c 0.02,12.589 -3.49,22.531 -10.3,29.543 l -0.05,0.058" /><g
         id="g138"><g
           clip-path="url(#clipPath144)"
           id="g140"><path
             id="path154"
             style="fill:url(#radialGradient152);fill-opacity:1;fill-rule:nonzero;stroke:none"
             d="m 5277.74,468.91 261.35,81.481 -30.33,-122.461 h -258.1 l 3.25,16.34 v 0.07 l 0.03,0.078 c 1.06,5.844 3.36,10.41 7.13,14.41 3.77,4 9.2,7.41 16.67,10.082 z m 517.96,323.559 c 3.59,11.82 5.23,26.84 5.26,45.429 0.04,50.641 -17.44,94.051 -52,128.543 -33.67,33.759 -76.72,50.819 -127.3,50.739 h -368.23 l -48.7,-186.66 H 5593 c 6.21,-0.059 9.3,-1.571 11.34,-3.801 2.01,-2.129 3.55,-6.199 3.69,-13 L 5594.37,761.52 5200.93,641.871 c -32.12,-9.84 -58.69,-25.422 -79.15,-46.793 -20.51,-21.348 -34.81,-48.359 -42.97,-80.5 L 5009.23,241.27 h 644.29 l 142.24,551.171 -0.06,0.028" /></g></g><path
         id="path156"
         style="fill:#006800;fill-opacity:1;fill-rule:nonzero;stroke:none"
         d="m 5753.6,971.07 v 0 c 0.02,0 0.02,-0.011 0.02,-0.011 l -0.02,0.011" /><path
         id="path158"
         style="fill:#006800;fill-opacity:1;fill-rule:nonzero;stroke:none"
         d="m 5503.62,434.5 h -244.96 l 1.69,8.48 0.07,0.321 c 0.88,4.758 2.5,7.847 5.42,11.039 2.87,3.031 7.3,5.93 14,8.34 l 250.07,77.961 z m -228.1,40.578 c -8.16,-2.918 -14.55,-6.808 -19.23,-11.738 l -0.01,-0.012 c -4.36,-4.598 -7.2,-10.348 -8.51,-16.859 l -0.06,0.019 -0.03,-0.066 -0.33,-1.024 v -0.488 l -4.69,-23.539 h 271.23 l 34.38,138.758 -272.63,-85 -0.12,-0.051" /><path
         id="path160"
         style="fill:#006800;fill-opacity:1;fill-rule:nonzero;stroke:none"
         d="m 5794.39,837.898 c -0.01,-18.187 -1.66,-32.66 -4.97,-43.539 l -2,-6.589 0.31,-0.079 -139.3,-539.863 h -630.76 l 67.5,265.113 c 7.94,31.239 21.71,57.137 41.35,77.598 19.6,20.441 45.1,35.473 76.34,45.07 l 396.93,120.692 14.82,56.648 -0.01,0.93 c -0.22,7.641 -1.76,13.23 -5.43,17.281 h 0.01 c -0.01,0.008 -0.02,0.031 -0.03,0.031 0,0.008 -0.03,0.02 -0.03,0.02 -1.61,1.758 -3.91,3.41 -6.62,4.391 -2.75,0.988 -5.82,1.437 -9.44,1.476 H 5593 5213.24 l 45.26,173.542 h 363.2 0.28 c 48.99,-0.07 89.92,-16.358 122.32,-48.819 l 0.01,-0.02 c 33.3,-33.281 50.03,-74.621 50.08,-123.66 z M 5753.6,971.07 c -34.76,34.96 -79.71,52.72 -131.62,52.67 h -0.37 -373.27 l -52.1,-199.791 h 396.71 c 2.59,-0.019 4.16,-0.359 5.01,-0.679 l 1.56,-0.989 0.02,-0.031 0.03,-0.031 c 0.28,-0.188 1.64,-2.598 1.85,-7.879 L 5588.95,766.719 5199.04,648.16 c -33.04,-10.129 -60.67,-26.289 -81.99,-48.539 -21.37,-22.242 -36.22,-50.371 -44.59,-83.43 l -71.68,-281.48 h 657.84 l 145.14,562.5 -0.14,0.027 c 2.64,11.461 3.88,24.821 3.89,40.653 v 0.007 0.223 c 0.06,52.047 -18.19,97.399 -53.91,132.949" /><g
         id="g162"><g
           clip-path="url(#clipPath168)"
           id="g164"><path
             id="path178"
             style="fill:url(#radialGradient176);fill-opacity:1;fill-rule:nonzero;stroke:none"
             d="m 6592.87,840.391 c 0.05,50.64 -17.31,94.05 -51.62,128.507 l -0.07,0.071 -0.06,0.082 c -35.01,33.649 -78.08,50.689 -127.58,50.619 H 5960.65 L 5758.73,241.27 H 5952.1 L 6105.36,833 h 279.57 c 6.32,-0.031 9.68,-1.512 11.61,-3.43 1.92,-1.922 3.41,-5.261 3.44,-11.621 V 813.93 L 6250.8,241.27 H 6444 l 142.45,553.691 h -0.02 c 4.28,15.48 6.44,30.609 6.44,45.43" /></g></g><path
         id="path180"
         style="fill:#006800;fill-opacity:1;fill-rule:nonzero;stroke:none"
         d="m 6586.3,840.391 c 0,-14.18 -2.06,-28.723 -6.2,-43.692 l -2.3,-8.308 h 0.19 L 6438.91,247.828 h -179.63 l 147.26,565.25 v 4.871 0.031 c 0.01,7.239 -1.81,12.688 -5.36,16.231 -3.54,3.539 -8.99,5.359 -16.22,5.359 h -0.03 -284.64 L 5947.04,247.828 h -179.83 l 198.51,765.282 h 447.82 0.04 0.23 c 47.82,-0.06 88.78,-16.309 122.61,-48.669 l 0.18,-0.179 c 33.03,-33.25 49.65,-74.602 49.7,-123.653 z m 13.13,0.218 c 0.06,51.789 -17.92,96.911 -53.05,132.391 l -0.19,0.281 -0.51,0.5 c -36.08,34.709 -80.97,52.499 -131.87,52.459 h -0.29 -0.02 -457.93 L 5750.24,234.711 h 206.94 l 153.26,591.73 h 274.45 c 5.43,-0.062 6.7,-1.23 7,-1.511 l 0.02,-0.032 c 0.28,-0.277 1.43,-1.507 1.49,-6.98 V 814.77 L 6242.29,234.711 h 206.8 l 145.83,566.809 h -0.14 c 3.04,13.121 4.65,26.101 4.65,38.871 v 0.218" /><path
         id="path182"
         style="fill:#000000;fill-opacity:1;fill-rule:nonzero;stroke:none"
         d="m 1936.25,7.44922 35.77,90.83208 c 0.78,1.9997 2.11,3.6487 3.99,4.9687 1.86,1.309 3.84,1.969 5.89,1.969 h 13.27 c 1.96,0 3.37,-0.66 4.24,-1.969 0.86,-1.32 0.91,-2.922 0.16,-4.8203 l -28.76,-73.0313 70.64,72.8829 c 1.87,1.8987 4.07,3.5387 6.56,4.8867 2.52,1.371 4.6,2.051 6.27,2.051 h 21.74 c 1.91,0 3.26,-0.68 4.05,-2.051 0.8,-1.348 0.81,-2.988 0.07,-4.8867 L 2044.37,7.44922 c -0.75,-1.89063 -2.09,-3.50781 -4.01,-4.85938 -1.94,-1.32812 -3.9,-1.999996 -5.85,-1.999996 h -13.26 c -1.96,0 -3.37,0.671876 -4.23,1.999996 -0.86,1.35157 -0.9,2.96875 -0.15,4.85938 L 2043.53,75.1602 1978.4,7.44922 c -1.88,-1.89063 -4.12,-3.50781 -6.71,-4.85938 -2.59,-1.32812 -4.84,-1.999996 -6.75,-1.999996 h -24.4 c -1.92,0 -3.3,0.671876 -4.15,1.999996 -0.86,1.35157 -0.9,2.96875 -0.14,4.85938" /><path
         id="path184"
         style="fill:#000000;fill-opacity:1;fill-rule:nonzero;stroke:none"
         d="m 2078.44,7.44922 35.76,90.83208 c 0.75,1.8987 2.07,3.5387 3.97,4.8867 1.89,1.371 3.85,2.051 5.84,2.051 h 13.56 c 1.9,0 3.25,-0.68 4.06,-2.051 0.8,-1.348 0.82,-2.988 0.07,-4.8867 l -12.92,-32.8204 h 50.2 l 12.93,32.8204 c 0.74,1.8987 2.07,3.5387 3.96,4.8867 1.89,1.371 3.81,2.051 5.71,2.051 h 13.56 c 2,0 3.4,-0.68 4.19,-2.051 0.81,-1.348 0.82,-2.988 0.08,-4.8867 L 2183.64,7.44922 c -0.75,-1.89063 -2.08,-3.50781 -3.99,-4.85938 -1.92,-1.32812 -3.82,-1.999996 -5.71,-1.999996 h -13.56 c -1.9,0 -3.29,0.640626 -4.15,1.929686 -0.84,1.28906 -0.89,2.89063 -0.15,4.78125 l 14.76,37.50782 h -50.2 L 2105.87,7.30078 c -0.74,-1.89062 -2.04,-3.49219 -3.88,-4.78125 -1.85,-1.28906 -3.72,-1.929686 -5.62,-1.929686 h -13.56 c -1.9,0 -3.29,0.671876 -4.17,1.999996 -0.89,1.35157 -0.96,2.96875 -0.2,4.85938" /><path
         id="path186"
         style="fill:#000000;fill-opacity:1;fill-rule:nonzero;stroke:none"
         d="m 2207.39,2.55859 c 0,0.39063 0.1,0.79297 0.27,1.24219 0.42,1.07031 1.31,2.28906 2.67,3.64844 l 29.68,29.06248 c 4.16,3.9883 8.6,7.6602 13.31,11 4.72,3.3164 8.79,5.3399 12.23,6.0196 -4.14,1.0976 -7.09,3.0273 -8.86,5.75 -1.77,2.7304 -2.98,6.1796 -3.63,10.3593 l -4.55,28.6602 c -0.22,1.5 -0.12,2.8402 0.34,4.0082 0.13,0.332 0.32,0.679 0.56,1.011 0.86,1.36 2.26,2.039 4.15,2.039 h 16.85 c 4.38,0 6.96,-2.347 7.73,-7.0582 l 3.4,-20.1016 c 0.84,-5.1484 2.43,-8.8984 4.75,-11.2578 2.34,-2.3633 5.64,-3.5312 9.92,-3.5312 h 3.28 l 13.74,34.8906 c 0.75,1.8982 2.06,3.5512 3.97,4.9492 1.89,1.41 3.77,2.109 5.67,2.109 h 13.8 c 1.89,0 3.24,-0.699 4.01,-2.109 0.79,-1.398 0.82,-3.051 0.06,-4.9492 L 2327,63.4102 h 3.29 c 4.28,0 8.5,1.1679 12.64,3.4882 4.17,2.3399 8.7,6.0899 13.61,11.3008 l 19.29,20.1016 c 4.42,4.6602 8.83,7.0082 13.22,7.0582 h 16.92 c 1.9,0 2.76,-0.679 2.57,-2.039 -0.04,-0.332 -0.12,-0.679 -0.26,-1.011 -0.44,-1.118 -1.39,-2.4574 -2.82,-4.0082 l -27.12,-28.6602 c -3.93,-4.1797 -7.85,-7.6289 -11.77,-10.3593 -3.92,-2.7227 -8.42,-4.6524 -13.47,-5.75 2.94,-0.6797 5.44,-2.7032 7.5,-6.0625 2.07,-3.3594 3.62,-7.0196 4.69,-10.9571 l 6.73,-29.06248 c 0.27,-1.41016 0.23,-2.62891 -0.13,-3.64844 -0.18,-0.42969 -0.4,-0.85156 -0.71,-1.24219 -1,-1.30859 -2.45,-1.968746 -4.33,-1.968746 h -16.79 c -1.9,0 -3.69,0.671876 -5.35,1.999996 -1.66,1.35157 -2.7,2.96875 -3.11,4.85938 l -4.91,20.35158 c -1.11,4.9609 -2.72,8.6992 -4.81,11.1992 -2.1,2.5117 -5.36,3.7617 -9.73,3.7617 h -3.28 L 2304.91,7.30078 c -0.75,-1.89062 -2.04,-3.49219 -3.9,-4.78125 -1.84,-1.28906 -3.7,-1.929686 -5.6,-1.929686 h -13.79 c -1.9,0 -3.27,0.640626 -4.1,1.929686 -0.83,1.28906 -0.86,2.89063 -0.13,4.78125 l 13.97,35.46092 h -3.28 c -4.38,0 -8.61,-1.25 -12.67,-3.7617 -4.08,-2.5 -8.66,-6.2383 -13.72,-11.1992 L 2240.83,7.44922 c -1.97,-1.89063 -4.29,-3.50781 -6.98,-4.85938 -2.69,-1.32812 -4.98,-1.999996 -6.88,-1.999996 h -16.78 c -1.9,0 -2.83,0.660156 -2.8,1.968746" /><path
         id="path188"
         style="fill:#000000;fill-opacity:1;fill-rule:nonzero;stroke:none"
         d="m 2398.76,7.60156 35.78,90.82814 c 0.75,1.8983 2.06,3.5003 3.94,4.8203 1.88,1.309 3.77,1.969 5.66,1.969 h 84.12 c 1.9,0 3.24,-0.68 4.05,-2.051 0.81,-1.348 0.83,-2.988 0.08,-4.8867 l -2.71,-6.8516 c -0.73,-1.8906 -2.04,-3.5195 -3.91,-4.8594 -1.87,-1.332 -3.74,-2 -5.64,-2 h -63.55 l -8.33,-21.1601 h 54.73 c 1.89,0 3.25,-0.6719 4.05,-2 0.82,-1.3594 0.85,-2.9805 0.09,-4.8907 l -2.71,-6.8789 c -0.74,-1.9023 -2.05,-3.5195 -3.93,-4.8593 -1.86,-1.3399 -3.74,-2.0196 -5.64,-2.0196 h -54.73 L 2431.64,21.25 h 63.4 c 1.9,0 3.24,-0.6602 4.02,-1.9805 0.76,-1.3086 0.78,-2.9179 0.03,-4.8203 l -2.75,-6.99998 c -0.75,-1.89063 -2.09,-3.50781 -3.97,-4.85938 -1.88,-1.32812 -3.77,-1.999996 -5.67,-1.999996 h -83.77 c -1.88,0 -3.26,0.671876 -4.1,1.999996 -0.83,1.35157 -0.85,3.01172 -0.07,5.01172" /><path
         id="path190"
         style="fill:#000000;fill-opacity:1;fill-rule:nonzero;stroke:none"
         d="m 2524.91,7.44922 35.78,90.83208 c 0.74,1.8987 2.07,3.5387 3.96,4.8867 1.89,1.371 3.85,2.051 5.84,2.051 h 13.57 c 1.9,0 3.24,-0.68 4.05,-2.051 0.8,-1.348 0.82,-2.988 0.08,-4.8867 l -12.93,-32.8204 h 50.2 l 12.93,32.8204 c 0.75,1.8987 2.07,3.5387 3.96,4.8867 1.9,1.371 3.81,2.051 5.71,2.051 h 13.57 c 1.99,0 3.39,-0.68 4.18,-2.051 0.81,-1.348 0.83,-2.988 0.08,-4.8867 L 2630.12,7.44922 c -0.75,-1.89063 -2.08,-3.50781 -4,-4.85938 -1.9,-1.32812 -3.81,-1.999996 -5.7,-1.999996 h -13.57 c -1.89,0 -3.29,0.640626 -4.14,1.929686 -0.84,1.28906 -0.89,2.89063 -0.16,4.78125 l 14.77,37.50782 h -50.2 L 2552.35,7.30078 c -0.74,-1.89062 -2.03,-3.49219 -3.88,-4.78125 -1.85,-1.28906 -3.72,-1.929686 -5.62,-1.929686 h -13.56 c -1.9,0 -3.29,0.671876 -4.17,1.999996 -0.89,1.35157 -0.96,2.96875 -0.21,4.85938" /><path
         id="path192"
         style="fill:#000000;fill-opacity:1;fill-rule:nonzero;stroke:none"
         d="m 2665.99,7.60156 35.78,90.82814 c 0.74,1.8983 2.05,3.5003 3.94,4.8203 1.87,1.309 3.77,1.969 5.65,1.969 h 84.13 c 1.9,0 3.24,-0.68 4.05,-2.051 0.8,-1.348 0.82,-2.988 0.08,-4.8867 l -2.71,-6.8516 c -0.74,-1.8906 -2.05,-3.5195 -3.91,-4.8594 -1.87,-1.332 -3.75,-2 -5.65,-2 h -63.55 l -8.32,-21.1601 h 54.72 c 1.9,0 3.25,-0.6719 4.06,-2 0.81,-1.3594 0.85,-2.9805 0.09,-4.8907 l -2.71,-6.8789 c -0.75,-1.9023 -2.06,-3.5195 -3.93,-4.8593 -1.86,-1.3399 -3.74,-2.0196 -5.64,-2.0196 h -54.74 L 2698.86,21.25 h 63.41 c 1.9,0 3.23,-0.6602 4.01,-1.9805 0.77,-1.3086 0.79,-2.9179 0.04,-4.8203 l -2.75,-6.99998 c -0.76,-1.89063 -2.09,-3.50781 -3.97,-4.85938 -1.88,-1.32812 -3.77,-1.999996 -5.68,-1.999996 h -83.76 c -1.89,0 -3.27,0.671876 -4.1,1.999996 -0.84,1.35157 -0.85,3.01172 -0.07,5.01172" /><path
         id="path194"
         style="fill:#000000;fill-opacity:1;fill-rule:nonzero;stroke:none"
         d="m 2834.24,44.5117 h 26.64 c 8.18,0 14.92,1.3672 20.24,4.1172 5.31,2.75 9.51,8.0508 12.6,15.9102 3.1,7.8593 3.07,13.1601 -0.08,15.9101 -3.14,2.7422 -8.81,4.1211 -16.98,4.1211 h -26.65 z m -42.09,-37.06248 35.78,90.83208 c 0.74,1.8987 2.04,3.5387 3.88,4.8867 1.86,1.371 3.73,2.051 5.62,2.051 h 55.68 c 29.38,0 38.74,-13.5588 28.08,-40.6799 -10.64,-27.1094 -30.69,-40.6797 -60.13,-40.6797 h -34.94 l -6.47,-16.41018 c -0.75,-1.89063 -2.05,-3.50781 -3.92,-4.85938 -1.86,-1.32812 -3.74,-1.999996 -5.64,-1.999996 h -13.71 c -1.89,0 -3.26,0.671876 -4.1,1.999996 -0.83,1.35157 -0.88,2.96875 -0.13,4.85938" /><path
         id="path196"
         style="fill:#000000;fill-opacity:1;fill-rule:nonzero;stroke:none"
         d="m 2927.04,7.44922 35.77,90.83208 c 0.74,1.8987 2.06,3.5387 3.96,4.8867 1.9,1.371 3.85,2.051 5.85,2.051 h 13.56 c 1.9,0 3.25,-0.68 4.05,-2.051 0.81,-1.348 0.82,-2.988 0.08,-4.8867 l -12.94,-32.8204 h 50.22 l 12.92,32.8204 c 0.74,1.8987 2.07,3.5387 3.97,4.8867 1.89,1.371 3.8,2.051 5.7,2.051 h 13.56 c 2.01,0 3.4,-0.68 4.19,-2.051 0.81,-1.348 0.82,-2.988 0.08,-4.8867 L 3032.24,7.44922 c -0.76,-1.89063 -2.07,-3.50781 -3.99,-4.85938 -1.91,-1.32812 -3.82,-1.999996 -5.71,-1.999996 h -13.56 c -1.9,0 -3.29,0.640626 -4.15,1.929686 -0.85,1.28906 -0.89,2.89063 -0.15,4.78125 l 14.77,37.50782 h -50.21 L 2954.47,7.30078 c -0.73,-1.89062 -2.04,-3.49219 -3.88,-4.78125 -1.85,-1.28906 -3.72,-1.929686 -5.61,-1.929686 h -13.57 c -1.89,0 -3.28,0.671876 -4.17,1.999996 -0.88,1.35157 -0.96,2.96875 -0.2,4.85938" /><path
         id="path198"
         style="fill:#000000;fill-opacity:1;fill-rule:nonzero;stroke:none"
         d="m 3179.92,7.30078 35.84,90.98052 c 0.73,1.8987 2.07,3.5387 3.94,4.8867 1.89,1.371 3.77,2.051 5.64,2.051 h 13.72 c 1.98,0 3.34,-0.68 4.14,-2.051 0.78,-1.348 0.81,-2.988 0.06,-4.8867 L 3207.5,7.44922 c -0.76,-1.89063 -2.08,-3.50781 -3.98,-4.85938 -1.89,-1.32812 -3.8,-1.999996 -5.67,-1.999996 h -13.71 c -1.87,0 -3.23,0.640626 -4.08,1.929686 -0.83,1.28906 -0.88,2.89063 -0.14,4.78125 z M 3100.99,21.25 h 30.05 c 8.19,0 14.09,4.6211 17.73,13.8906 3.66,9.2578 1.41,13.8907 -6.78,13.8907 h -30.05 z m -32.88,-13.64844 35.72,90.67974 c 0.78,1.9997 2.09,3.6487 3.92,4.9687 1.83,1.309 3.74,1.969 5.73,1.969 h 13.72 c 1.9,0 3.24,-0.68 4.05,-2.051 0.81,-1.348 0.84,-2.969 0.08,-4.8672 l -11.27,-28.6211 h 30.07 c 11.49,0 19.78,-3.0391 24.9,-9.1484 5.11,-6.0899 5.52,-14.5704 1.24,-25.4297 -4.26,-10.8399 -11.36,-19.3125 -21.29,-25.39066 -9.95,-6.08203 -20.62,-9.121096 -32.06,-9.121096 h -51 c -1.8,0 -3.07,0.691406 -3.81,2.082036 -0.75,1.38671 -0.74,3.02734 0,4.92968" /><path
         id="path200"
         style="fill:#000000;fill-opacity:1;fill-rule:nonzero;stroke:none"
         d="m 3323.41,135.07 c 0.97,2.481 2.79,3.711 5.47,3.711 h 5.98 c 2.38,0 3.57,-1.23 3.59,-3.691 0.03,-3.469 2.48,-5.211 7.37,-5.16 4.88,0.019 8.66,1.73 11.37,5.16 1.95,2.461 4.12,3.691 6.56,3.691 h 5.99 c 2.66,0 3.52,-1.23 2.55,-3.711 -2.63,-6.679 -6.95,-11.949 -12.95,-15.84 -6.01,-3.89 -12.69,-5.839 -20.04,-5.839 -7.35,0 -12.48,1.949 -15.42,5.839 -2.95,3.891 -3.1,9.161 -0.47,15.84 z M 3243.6,7.44922 3279.37,98.2813 c 0.78,1.9997 2.11,3.6487 4,4.9687 1.86,1.309 3.83,1.969 5.88,1.969 h 13.27 c 1.96,0 3.37,-0.66 4.23,-1.969 0.87,-1.32 0.93,-2.922 0.18,-4.8203 l -28.77,-73.0313 70.57,72.8829 c 1.87,1.8987 4.07,3.5387 6.56,4.8867 2.5,1.371 4.58,2.051 6.24,2.051 h 21.71 c 1.91,0 3.25,-0.68 4.05,-2.051 0.8,-1.348 0.81,-2.988 0.06,-4.8867 L 3351.58,7.44922 c -0.75,-1.89063 -2.08,-3.50781 -4.04,-4.85938 -1.92,-1.32812 -3.86,-1.999996 -5.83,-1.999996 h -13.26 c -1.95,0 -3.36,0.671876 -4.21,1.999996 -0.87,1.35157 -0.92,2.96875 -0.17,4.85938 l 26.65,67.71098 -65.04,-67.71098 c -1.9,-1.89063 -4.1,-3.50781 -6.7,-4.85938 -2.59,-1.32812 -4.84,-1.999996 -6.75,-1.999996 h -24.35 c -1.9,0 -3.3,0.671876 -4.15,1.999996 -0.84,1.35157 -0.88,2.96875 -0.13,4.85938" /><path
         id="path202"
         style="fill:#000000;fill-opacity:1;fill-rule:nonzero;stroke:none"
         d="m 3452.96,7.44922 35.77,90.83208 c 0.8,1.9997 2.12,3.6487 4,4.9687 1.86,1.309 3.84,1.969 5.88,1.969 h 13.28 c 1.95,0 3.37,-0.66 4.23,-1.969 0.87,-1.32 0.93,-2.922 0.18,-4.8203 l -28.77,-73.0313 70.64,72.8829 c 1.86,1.8987 4.08,3.5387 6.57,4.8867 2.51,1.371 4.59,2.051 6.27,2.051 h 21.72 c 1.93,0 3.27,-0.68 4.06,-2.051 0.79,-1.348 0.81,-2.988 0.07,-4.8867 L 3561.09,7.44922 c -0.75,-1.89063 -2.09,-3.50781 -4.02,-4.85938 -1.92,-1.32812 -3.89,-1.999996 -5.84,-1.999996 h -13.27 c -1.95,0 -3.36,0.671876 -4.22,1.999996 -0.85,1.35157 -0.9,2.96875 -0.15,4.85938 l 26.66,67.71098 -65.14,-67.71098 c -1.87,-1.89063 -4.1,-3.50781 -6.7,-4.85938 -2.58,-1.32812 -4.84,-1.999996 -6.74,-1.999996 h -24.41 c -1.91,0 -3.31,0.671876 -4.15,1.999996 -0.85,1.35157 -0.9,2.96875 -0.15,4.85938" /><path
         id="path204"
         style="fill:#000000;fill-opacity:1;fill-rule:nonzero;stroke:none"
         d="m 3595.16,7.44922 35.76,90.83208 c 0.75,1.8987 2.07,3.5387 3.97,4.8867 1.9,1.371 3.85,2.051 5.85,2.051 h 13.56 c 1.9,0 3.24,-0.68 4.05,-2.051 0.8,-1.348 0.82,-2.988 0.07,-4.8867 L 3645.5,65.4609 h 50.21 l 12.92,32.8204 c 0.74,1.8987 2.07,3.5387 3.96,4.8867 1.9,1.371 3.81,2.051 5.71,2.051 h 13.56 c 2,0 3.4,-0.68 4.19,-2.051 0.81,-1.348 0.82,-2.988 0.08,-4.8867 L 3700.36,7.44922 c -0.76,-1.89063 -2.08,-3.50781 -3.99,-4.85938 -1.92,-1.32812 -3.82,-1.999996 -5.72,-1.999996 h -13.56 c -1.9,0 -3.28,0.640626 -4.14,1.929686 -0.85,1.28906 -0.89,2.89063 -0.15,4.78125 l 14.76,37.50782 h -50.2 L 3622.59,7.30078 c -0.74,-1.89062 -2.04,-3.49219 -3.88,-4.78125 -1.85,-1.28906 -3.72,-1.929686 -5.62,-1.929686 h -13.56 c -1.9,0 -3.28,0.671876 -4.18,1.999996 -0.88,1.35157 -0.94,2.96875 -0.19,4.85938" /><path
         id="path206"
         style="fill:#000000;fill-opacity:1;fill-rule:nonzero;stroke:none"
         d="m 3772.05,21.25 h 51.48 l 24.94,63.3203 h -21.7 c -4.53,0 -8.82,-1.2617 -12.83,-3.8086 -4.03,-2.5429 -7.49,-6.082 -10.39,-10.6133 z m -46.22,-13.80078 2.75,6.99998 c 0.74,1.9024 2.05,3.5117 3.89,4.8203 1.84,1.3203 3.7,1.9805 5.6,1.9805 h 5.65 l 35.32,55.2188 c 12.21,19.121 31.79,28.7032 58.8,28.7502 h 39.41 c 1.91,0 3.25,-0.66 4.09,-1.969 0.81,-1.32 0.86,-2.922 0.11,-4.8203 L 3845.56,7.30078 c -0.74,-1.89062 -2.05,-3.49219 -3.89,-4.78125 -1.84,-1.28906 -3.72,-1.929686 -5.6,-1.929686 h -106.09 c -1.91,0 -3.25,0.671876 -4.07,1.999996 -0.83,1.35157 -0.85,2.96875 -0.08,4.85938" /><path
         id="path208"
         style="fill:#000000;fill-opacity:1;fill-rule:nonzero;stroke:none"
         d="m 3908.8,98.2813 c -0.02,0.9296 0.12,1.7967 0.41,2.6287 0.31,0.82 0.81,1.59 1.52,2.258 1.32,1.371 2.93,2.051 4.81,2.051 h 15.4 c 4.68,0 7.03,-2.207 7.09,-6.6409 l 0.4,-20.2773 c 0.17,-5.8906 1.56,-10.2813 4.15,-13.1719 2.61,-2.8984 6.99,-4.3476 13.11,-4.3476 h 8.97 l 28.04,37.6484 c 1.49,2.1013 3.34,3.7503 5.53,4.9613 2.18,1.218 4.27,1.828 6.27,1.828 h 14.73 c 1.9,0 3.05,-0.66 3.45,-1.969 0.23,-0.77 0.16,-1.66 -0.22,-2.629 -0.24,-0.621 -0.65,-1.3124 -1.19,-2.0429 l -50.58,-68.0664 c -7.09,-9.5898 -14.97,-16.9609 -23.67,-22.15232 -8.7,-5.19141 -19.05,-7.769536 -31.01,-7.769536 h -17.59 c -1.89,0 -3.29,0.628906 -4.15,1.890626 -0.86,1.25781 -0.95,2.76953 -0.25,4.55859 l 3.06,7.75004 c 0.7,1.7812 1.96,3.3007 3.76,4.5703 1.82,1.25 3.72,1.8906 5.72,1.8906 h 2.32 c 1.33,0 3.32,0 6.03,0 2.69,0 4.78,0 6.23,0 h 1.54 c 9.68,0 18.78,6.2813 27.3,18.8906 h -6.29 c -12.26,0 -20.83,2.4883 -25.72,7.4805 -4.89,4.9883 -7.57,13.1094 -8.06,24.3594 l -1.11,26.3008" /><path
         id="path210"
         style="fill:#000000;fill-opacity:1;fill-rule:nonzero;stroke:none"
         d="m 4022.4,12.9492 c -5.64,8.6406 -4.9,21.9492 2.18,39.961 7.09,18 16.89,31.3086 29.37,39.9492 12.49,8.6206 27.84,12.9416 46.03,12.9416 h 16.4 c 11.13,0 19.84,-2.86 26.13,-8.6018 6.29,-5.7383 7.49,-13.5976 3.56,-23.5586 -1.12,-2.8789 -2.83,-4.9414 -5.08,-6.1718 -2.24,-1.25 -4.2,-1.8594 -5.86,-1.8594 h -8.96 c -4.62,0 -7.16,2.6601 -7.62,8.0195 -0.57,7.6797 -5.06,11.5313 -13.42,11.5313 h -12.97 c -10.67,0 -18.77,-2.2813 -24.36,-6.8516 -5.6,-4.5703 -10.83,-13.0273 -15.69,-25.3594 -4.86,-12.3476 -6.29,-20.8203 -4.3,-25.4179 1.98,-4.5899 8.29,-6.8829 18.94,-6.8829 h 14.51 c 8.37,0 15.85,3.8516 22.43,11.5118 4.59,5.3711 9.14,8.0507 13.66,8.0507 h 8.7 c 0.87,0 1.73,-0.1796 2.59,-0.539 0.85,-0.3711 1.53,-1.2227 2.06,-2.543 0.53,-1.3203 0.4,-2.9805 -0.38,-4.9687 -3.94,-9.9805 -11.26,-17.8399 -21.99,-23.57036 C 4097.63,2.87109 4086.74,0 4075.7,0 h -17.8 c -18.05,0 -29.88,4.32031 -35.5,12.9492" /><path
         id="path212"
         style="fill:#000000;fill-opacity:1;fill-rule:nonzero;stroke:none"
         d="m 4170.79,91.4297 2.7,6.8516 c 0.78,1.9997 2.09,3.6487 3.93,4.9687 1.83,1.309 3.74,1.969 5.72,1.969 h 92.61 c 1.98,0 3.39,-0.66 4.19,-1.969 0.78,-1.32 0.78,-2.969 0.01,-4.9687 l -2.72,-6.8516 c -0.78,-1.9883 -2.08,-3.6406 -3.9,-4.9297 -1.82,-1.2891 -3.74,-1.9297 -5.71,-1.9297 h -32.57 L 4204.63,7.30078 c -0.74,-1.89062 -2.03,-3.49219 -3.88,-4.78125 -1.84,-1.28906 -3.71,-1.929686 -5.62,-1.929686 h -13.78 c -1.89,0 -3.25,0.640626 -4.1,1.929686 -0.82,1.28906 -0.86,2.89063 -0.12,4.78125 l 30.44,77.26952 h -32.56 c -1.98,0 -3.38,0.6406 -4.19,1.9297 -0.82,1.2891 -0.82,2.9414 -0.03,4.9297" /><path
         id="path214"
         style="fill:#000000;fill-opacity:1;fill-rule:nonzero;stroke:none"
         d="m 4313.09,44.5117 h 26.64 c 8.18,0 14.91,1.3672 20.24,4.1172 5.31,2.75 9.51,8.0508 12.6,15.9102 3.1,7.8593 3.08,13.1601 -0.08,15.9101 -3.15,2.7422 -8.82,4.1211 -16.98,4.1211 h -26.64 z M 4271,7.44922 4306.78,98.2813 c 0.73,1.8987 2.04,3.5387 3.88,4.8867 1.85,1.371 3.73,2.051 5.62,2.051 h 55.68 c 29.37,0 38.74,-13.5588 28.07,-40.6799 -10.64,-27.1094 -30.68,-40.6797 -60.11,-40.6797 h -34.95 L 4298.5,7.44922 c -0.75,-1.89063 -2.06,-3.50781 -3.91,-4.85938 -1.87,-1.32812 -3.76,-1.999996 -5.64,-1.999996 h -13.72 c -1.9,0 -3.27,0.671876 -4.09,1.999996 -0.85,1.35157 -0.89,2.96875 -0.14,4.85938" /><path
         id="path216"
         style="fill:#000000;fill-opacity:1;fill-rule:nonzero;stroke:none"
         d="m 4405.9,7.44922 35.77,90.83208 c 0.79,1.9997 2.11,3.6487 4,4.9687 1.85,1.309 3.84,1.969 5.89,1.969 h 13.27 c 1.95,0 3.37,-0.66 4.23,-1.969 0.87,-1.32 0.92,-2.922 0.17,-4.8203 l -28.76,-73.0313 70.63,72.8829 c 1.87,1.8987 4.08,3.5387 6.57,4.8867 2.51,1.371 4.59,2.051 6.27,2.051 h 21.73 c 1.92,0 3.27,-0.68 4.06,-2.051 0.79,-1.348 0.81,-2.988 0.07,-4.8867 L 4514.03,7.44922 c -0.76,-1.89063 -2.1,-3.50781 -4.03,-4.85938 -1.92,-1.32812 -3.88,-1.999996 -5.83,-1.999996 h -13.28 c -1.95,0 -3.36,0.671876 -4.22,1.999996 -0.85,1.35157 -0.9,2.96875 -0.14,4.85938 l 26.65,67.71098 -65.13,-67.71098 c -1.88,-1.89063 -4.12,-3.50781 -6.71,-4.85938 -2.59,-1.32812 -4.84,-1.999996 -6.75,-1.999996 h -24.39 c -1.92,0 -3.3,0.671876 -4.15,1.999996 -0.87,1.35157 -0.91,2.96875 -0.15,4.85938" /><path
         id="path218"
         style="fill:#000000;fill-opacity:1;fill-rule:nonzero;stroke:none"
         d="m 4593.54,46.4805 h 46.15 l 15,38.0898 h -20.71 c -4.65,0 -9.24,-1.332 -13.75,-3.9805 -4.51,-2.6718 -8.26,-6.2304 -11.22,-10.7187 z m -54.13,-39.17972 45.67,69.46092 c 12.42,18.9297 32.31,28.4103 59.66,28.4573 h 39.33 c 1.79,0 3.02,-0.68 3.67,-2.051 0.67,-1.348 0.64,-2.938 -0.07,-4.7383 L 4651.78,7.30078 c -0.74,-1.89062 -2.06,-3.49219 -3.93,-4.78125 -1.86,-1.28906 -3.74,-1.929686 -5.65,-1.929686 h -13.72 c -1.99,0 -3.39,0.640626 -4.16,1.929686 -0.78,1.28906 -0.78,2.94141 0.01,4.92969 l 7.24,18.37888 h -51.68 L 4567.71,7.41016 c -1.29,-1.98828 -3.02,-3.60938 -5.23,-4.89844 -2.21,-1.28125 -4.29,-1.921876 -6.19,-1.921876 h -14.46 c -1.9,0 -3.08,0.660156 -3.54,1.968746 -0.34,0.88282 -0.29,1.8711 0.14,3 0.26,0.53125 0.6,1.11329 0.98,1.74219" /><path
         id="path220"
         style="fill:#000000;fill-opacity:1;fill-rule:nonzero;stroke:none"
         d="m 4678.75,6.71875 46.13,70.04295 c 12.4,18.9297 32.27,28.4103 59.57,28.4573 h 36.48 c 1.69,0 2.86,-0.707 3.51,-2.11 0.63,-1.418 0.6,-3.031 -0.11,-4.8277 L 4788.56,7.44922 c -0.76,-1.89063 -2.05,-3.50781 -3.85,-4.85938 -1.81,-1.32812 -3.67,-1.999996 -5.57,-1.999996 h -13.94 c -1.88,0 -3.25,0.671876 -4.05,1.999996 -0.81,1.35157 -0.86,2.96875 -0.1,4.85938 l 30.35,77.12108 h -17.7 c -4.68,0 -9.25,-1.332 -13.76,-3.9805 -4.51,-2.6718 -8.26,-6.2304 -11.23,-10.7187 L 4707.42,7.39844 c -1.26,-1.97656 -3.01,-3.61719 -5.23,-4.88672 -2.2,-1.28125 -4.27,-1.921876 -6.18,-1.921876 h -14.89 c -1.72,0 -2.8,0.628906 -3.23,1.898436 -0.34,0.86328 -0.31,1.82031 0.1,2.85156 0.22,0.42969 0.47,0.89844 0.76,1.37891" /><path
         id="path222"
         style="fill:#000000;fill-opacity:1;fill-rule:nonzero;stroke:none"
         d="m 4857.29,21.25 h 36.04 c 8.18,0 14.11,4.6211 17.74,13.8906 3.66,9.2578 1.39,13.8907 -6.79,13.8907 h -36.03 z m -32.87,-13.64844 35.72,90.67974 c 0.78,1.9997 2.09,3.6487 3.91,4.9687 1.84,1.309 3.76,1.969 5.74,1.969 h 13.72 c 1.9,0 3.24,-0.68 4.04,-2.051 0.8,-1.348 0.84,-2.969 0.09,-4.8672 l -11.28,-28.6211 h 36.06 c 11.48,0 19.78,-3.0391 24.88,-9.1484 5.12,-6.0899 5.55,-14.5704 1.26,-25.4297 -4.27,-10.8399 -11.37,-19.3125 -21.31,-25.39066 -9.91,-6.08203 -20.61,-9.121096 -32.03,-9.121096 h -56.98 c -1.81,0 -3.09,0.691406 -3.82,2.082036 -0.76,1.38671 -0.74,3.02734 0,4.92968" /><path
         id="path224"
         style="fill:#000000;fill-opacity:1;fill-rule:nonzero;stroke:none"
         d="m 4955.98,7.44922 35.77,90.83208 c 0.75,1.8987 2.06,3.5387 3.97,4.8867 1.89,1.371 3.85,2.051 5.84,2.051 h 13.56 c 1.91,0 3.24,-0.68 4.05,-2.051 0.81,-1.348 0.83,-2.988 0.08,-4.8867 l -12.93,-32.8204 h 50.22 l 12.92,32.8204 c 0.74,1.8987 2.07,3.5387 3.95,4.8867 1.91,1.371 3.81,2.051 5.72,2.051 h 13.56 c 1.99,0 3.4,-0.68 4.18,-2.051 0.81,-1.348 0.83,-2.988 0.09,-4.8867 L 5061.19,7.44922 c -0.76,-1.89063 -2.09,-3.50781 -3.99,-4.85938 -1.92,-1.32812 -3.83,-1.999996 -5.72,-1.999996 h -13.56 c -1.9,0 -3.29,0.640626 -4.15,1.929686 -0.84,1.28906 -0.88,2.89063 -0.15,4.78125 l 14.77,37.50782 h -50.2 L 4983.41,7.30078 c -0.74,-1.89062 -2.03,-3.49219 -3.88,-4.78125 -1.84,-1.28906 -3.71,-1.929686 -5.62,-1.929686 h -13.55 c -1.91,0 -3.28,0.671876 -4.18,1.999996 -0.87,1.35157 -0.96,2.96875 -0.2,4.85938" /><path
         id="path226"
         style="fill:#000000;fill-opacity:1;fill-rule:nonzero;stroke:none"
         d="m 5208.86,7.30078 35.83,90.98052 c 0.75,1.8987 2.07,3.5387 3.95,4.8867 1.88,1.371 3.78,2.051 5.65,2.051 h 13.7 c 2,0 3.36,-0.68 4.15,-2.051 0.79,-1.348 0.8,-2.988 0.07,-4.8867 L 5236.44,7.44922 c -0.76,-1.89063 -2.09,-3.50781 -3.98,-4.85938 -1.91,-1.32812 -3.79,-1.999996 -5.66,-1.999996 h -13.72 c -1.87,0 -3.23,0.640626 -4.07,1.929686 -0.84,1.28906 -0.89,2.89063 -0.15,4.78125 z M 5129.93,21.25 H 5160 c 8.17,0 14.08,4.6211 17.72,13.8906 3.65,9.2578 1.4,13.8907 -6.78,13.8907 h -30.07 z m -32.87,-13.64844 35.71,90.67974 c 0.79,1.9997 2.09,3.6487 3.9,4.9687 1.86,1.309 3.77,1.969 5.76,1.969 h 13.72 c 1.89,0 3.24,-0.68 4.05,-2.051 0.79,-1.348 0.83,-2.969 0.07,-4.8672 l -11.26,-28.6211 h 30.06 c 11.48,0 19.78,-3.0391 24.9,-9.1484 5.11,-6.0899 5.53,-14.5704 1.25,-25.4297 -4.27,-10.8399 -11.38,-19.3125 -21.31,-25.39066 -9.92,-6.08203 -20.61,-9.121096 -32.05,-9.121096 h -51 c -1.78,0 -3.07,0.691406 -3.8,2.082036 -0.76,1.38671 -0.75,3.02734 0,4.92968" /><path
         id="path228"
         style="fill:#000000;fill-opacity:1;fill-rule:nonzero;stroke:none"
         d="m 5352.34,135.07 c 0.97,2.481 2.79,3.711 5.47,3.711 h 5.97 c 2.39,0 3.58,-1.23 3.6,-3.691 0.04,-3.469 2.48,-5.211 7.36,-5.16 4.89,0.019 8.66,1.73 11.38,5.16 1.94,2.461 4.12,3.691 6.55,3.691 h 6 c 2.66,0 3.52,-1.23 2.55,-3.711 -2.63,-6.679 -6.95,-11.949 -12.95,-15.84 -6.01,-3.89 -12.69,-5.839 -20.03,-5.839 -7.35,0 -12.49,1.949 -15.43,5.839 -2.95,3.891 -3.1,9.161 -0.47,15.84 z M 5272.53,7.44922 5308.3,98.2813 c 0.79,1.9997 2.12,3.6487 4,4.9687 1.86,1.309 3.83,1.969 5.88,1.969 h 13.27 c 1.96,0 3.37,-0.66 4.23,-1.969 0.87,-1.32 0.93,-2.922 0.18,-4.8203 l -28.78,-73.0313 70.58,72.8829 c 1.87,1.8987 4.07,3.5387 6.55,4.8867 2.51,1.371 4.58,2.051 6.25,2.051 h 21.7 c 1.92,0 3.26,-0.68 4.06,-2.051 0.8,-1.348 0.81,-2.988 0.05,-4.8867 L 5380.51,7.44922 c -0.76,-1.89063 -2.09,-3.50781 -4.03,-4.85938 -1.92,-1.32812 -3.88,-1.999996 -5.84,-1.999996 h -13.25 c -1.97,0 -3.37,0.671876 -4.22,1.999996 -0.87,1.35157 -0.93,2.96875 -0.17,4.85938 L 5379.65,75.1602 5314.6,7.44922 c -1.87,-1.89063 -4.1,-3.50781 -6.68,-4.85938 -2.6,-1.32812 -4.85,-1.999996 -6.76,-1.999996 h -24.36 c -1.89,0 -3.3,0.671876 -4.15,1.999996 -0.84,1.35157 -0.88,2.96875 -0.12,4.85938" /><path
         id="path230"
         style="fill:#000000;fill-opacity:1;fill-rule:nonzero;stroke:none"
         d="m 5481.96,7.60156 35.72,90.67974 c 0.73,1.8987 2.08,3.5707 4,4.9687 1.91,1.41 3.81,2.109 5.7,2.109 h 13.72 c 1.9,0 3.24,-0.699 4.04,-2.109 0.76,-1.398 0.79,-3.051 0.04,-4.9492 l -13.73,-34.8906 h 15.69 c 4.28,0 8.49,1.1679 12.64,3.4882 4.16,2.3399 8.71,6.0899 13.68,11.3008 l 19.22,20.1016 c 4.42,4.6602 8.86,7.0082 13.29,7.0582 h 16.86 c 1.88,0 2.74,-0.679 2.56,-2.039 -0.04,-0.332 -0.12,-0.679 -0.25,-1.011 -0.45,-1.118 -1.39,-2.4574 -2.83,-4.0082 l -27.12,-28.6602 c -3.93,-4.1797 -7.86,-7.6289 -11.77,-10.3593 -3.92,-2.7227 -8.4,-4.6524 -13.4,-5.75 2.93,-0.6797 5.44,-2.7032 7.51,-6.0625 2.05,-3.3594 3.58,-7.0196 4.61,-10.9571 l 6.81,-29.06248 c 0.26,-1.41016 0.19,-2.62891 -0.21,-3.64844 -0.18,-0.44922 -0.4,-0.85156 -0.71,-1.24219 -1,-1.30859 -2.44,-1.968746 -4.34,-1.968746 h -16.72 c -1.89,0 -3.68,0.671876 -5.33,1.999996 -1.67,1.35157 -2.73,2.96875 -3.19,4.85938 l -4.84,20.35158 c -1.11,4.9609 -2.74,8.6992 -4.86,11.1992 -2.1,2.5117 -5.38,3.7617 -9.75,3.7617 h -15.69 L 5509.34,7.30078 c -0.74,-1.89062 -2.03,-3.49219 -3.88,-4.78125 -1.84,-1.28906 -3.72,-1.929686 -5.61,-1.929686 h -13.72 c -1.88,0 -3.26,0.691406 -4.07,2.082036 -0.81,1.38671 -0.84,3.02734 -0.1,4.92968" /><path
         id="path232"
         style="fill:#000000;fill-opacity:1;fill-rule:nonzero;stroke:none"
         d="m 5606.71,6.71875 46.14,70.04295 c 12.41,18.9297 32.26,28.4103 59.57,28.4573 h 36.49 c 1.69,0 2.85,-0.707 3.5,-2.11 0.62,-1.418 0.6,-3.031 -0.1,-4.8277 L 5716.53,7.44922 c -0.74,-1.89063 -2.03,-3.50781 -3.86,-4.85938 -1.82,-1.32812 -3.66,-1.999996 -5.57,-1.999996 h -13.92 c -1.9,0 -3.25,0.671876 -4.06,1.999996 -0.82,1.35157 -0.85,2.96875 -0.1,4.85938 l 30.37,77.12108 h -17.74 c -4.64,0 -9.23,-1.332 -13.74,-3.9805 -4.52,-2.6718 -8.25,-6.2304 -11.24,-10.7187 L 5635.4,7.39844 c -1.27,-1.97656 -3.01,-3.61719 -5.24,-4.88672 -2.21,-1.28125 -4.27,-1.921876 -6.17,-1.921876 h -14.9 c -1.72,0 -2.8,0.628906 -3.24,1.898436 -0.33,0.86328 -0.3,1.82031 0.11,2.85156 0.22,0.42969 0.47,0.89844 0.75,1.37891" /><path
         id="path234"
         style="fill:#000000;fill-opacity:1;fill-rule:nonzero;stroke:none"
         d="m 5752.35,7.44922 35.76,90.83208 c 0.78,1.9997 2.12,3.6487 4,4.9687 1.85,1.309 3.84,1.969 5.88,1.969 h 13.27 c 1.97,0 3.38,-0.66 4.24,-1.969 0.87,-1.32 0.92,-2.922 0.17,-4.8203 l -28.76,-73.0313 70.63,72.8829 c 1.88,1.8987 4.08,3.5387 6.57,4.8867 2.51,1.371 4.59,2.051 6.27,2.051 h 21.72 c 1.93,0 3.28,-0.68 4.08,-2.051 0.78,-1.348 0.81,-2.988 0.06,-4.8867 L 5860.47,7.44922 c -0.76,-1.89063 -2.11,-3.50781 -4.03,-4.85938 -1.92,-1.32812 -3.89,-1.999996 -5.83,-1.999996 h -13.27 c -1.96,0 -3.35,0.671876 -4.24,1.999996 -0.83,1.35157 -0.89,2.96875 -0.13,4.85938 L 5859.62,75.1602 5794.5,7.44922 c -1.89,-1.89063 -4.13,-3.50781 -6.72,-4.85938 -2.59,-1.32812 -4.84,-1.999996 -6.75,-1.999996 h -24.39 c -1.93,0 -3.31,0.671876 -4.14,1.999996 -0.88,1.35157 -0.91,2.96875 -0.15,4.85938" /><path
         id="path236"
         style="fill:#000000;fill-opacity:1;fill-rule:nonzero;stroke:none"
         d="m 5894.53,7.44922 35.78,90.83208 c 0.73,1.8987 2.05,3.5387 3.95,4.8867 1.9,1.371 3.85,2.051 5.84,2.051 h 13.57 c 1.9,0 3.24,-0.68 4.05,-2.051 0.8,-1.348 0.82,-2.988 0.09,-4.8867 l -12.93,-32.8204 h 50.2 L 6008,98.2813 c 0.75,1.8987 2.08,3.5387 3.97,4.8867 1.89,1.371 3.8,2.051 5.7,2.051 h 13.57 c 2,0 3.39,-0.68 4.18,-2.051 0.81,-1.348 0.83,-2.988 0.08,-4.8867 L 5999.74,7.44922 c -0.76,-1.89063 -2.1,-3.50781 -3.99,-4.85938 -1.93,-1.32812 -3.83,-1.999996 -5.72,-1.999996 h -13.57 c -1.88,0 -3.28,0.640626 -4.14,1.929686 -0.84,1.28906 -0.89,2.89063 -0.16,4.78125 l 14.78,37.50782 h -50.2 L 5921.97,7.30078 c -0.75,-1.89062 -2.04,-3.49219 -3.89,-4.78125 -1.84,-1.28906 -3.71,-1.929686 -5.61,-1.929686 h -13.56 c -1.9,0 -3.29,0.671876 -4.19,1.999996 -0.87,1.35157 -0.95,2.96875 -0.19,4.85938" /><path
         id="path238"
         style="fill:#000000;fill-opacity:1;fill-rule:nonzero;stroke:none"
         d="m 6035.55,7.44922 35.77,90.83208 c 0.78,1.9997 2.12,3.6487 3.99,4.9687 1.87,1.309 3.85,1.969 5.9,1.969 h 13.26 c 1.97,0 3.38,-0.66 4.25,-1.969 0.86,-1.32 0.9,-2.922 0.15,-4.8203 l -28.75,-73.0313 70.64,72.8829 c 1.87,1.8987 4.07,3.5387 6.56,4.8867 2.52,1.371 4.6,2.051 6.28,2.051 h 21.73 c 1.92,0 3.26,-0.68 4.06,-2.051 0.79,-1.348 0.8,-2.988 0.06,-4.8867 L 6143.68,7.44922 c -0.76,-1.89063 -2.08,-3.50781 -4.01,-4.85938 -1.95,-1.32812 -3.89,-1.999996 -5.85,-1.999996 h -13.27 c -1.95,0 -3.37,0.671876 -4.22,1.999996 -0.87,1.35157 -0.91,2.96875 -0.14,4.85938 l 26.67,67.71098 -65.15,-67.71098 c -1.88,-1.89063 -4.12,-3.50781 -6.71,-4.85938 -2.59,-1.32812 -4.84,-1.999996 -6.75,-1.999996 h -24.4 c -1.93,0 -3.31,0.671876 -4.15,1.999996 -0.85,1.35157 -0.9,2.96875 -0.15,4.85938" /><path
         id="path240"
         style="fill:#000000;fill-opacity:1;fill-rule:nonzero;stroke:none"
         d="m 6177.75,7.44922 35.76,90.83208 c 0.75,1.8987 2.08,3.5387 3.97,4.8867 1.9,1.371 3.84,2.051 5.85,2.051 h 13.56 c 1.89,0 3.24,-0.68 4.04,-2.051 0.82,-1.348 0.83,-2.988 0.08,-4.8867 l -12.93,-32.8204 h 50.21 l 12.93,32.8204 c 0.74,1.8987 2.06,3.5387 3.96,4.8867 1.9,1.371 3.81,2.051 5.7,2.051 h 13.57 c 2,0 3.4,-0.68 4.19,-2.051 0.8,-1.348 0.82,-2.988 0.08,-4.8867 L 6282.94,7.44922 c -0.75,-1.89063 -2.07,-3.50781 -3.99,-4.85938 -1.89,-1.32812 -3.81,-1.999996 -5.71,-1.999996 h -13.56 c -1.9,0 -3.28,0.640626 -4.14,1.929686 -0.85,1.28906 -0.9,2.89063 -0.15,4.78125 l 14.76,37.50782 h -50.2 L 6205.19,7.30078 c -0.75,-1.89062 -2.05,-3.49219 -3.89,-4.78125 -1.85,-1.28906 -3.73,-1.929686 -5.62,-1.929686 h -13.57 c -1.89,0 -3.29,0.671876 -4.16,1.999996 -0.89,1.35157 -0.96,2.96875 -0.2,4.85938" /><path
         id="path242"
         style="fill:#000000;fill-opacity:1;fill-rule:nonzero;stroke:none"
         d="m 6318.71,7.30078 35.83,90.98052 c 0.78,1.9997 2.09,3.6487 3.92,4.9687 1.83,1.309 3.74,1.969 5.72,1.969 h 70.49 c 2.01,0 3.39,-0.66 4.15,-1.969 0.77,-1.32 0.76,-2.969 -0.02,-4.9687 l -2.7,-6.8516 c -0.78,-1.9883 -2.08,-3.6406 -3.87,-4.9297 -1.81,-1.2891 -3.69,-1.9297 -5.7,-1.9297 h -49.89 L 6346.21,7.30078 c -0.75,-1.89062 -2.04,-3.49219 -3.89,-4.78125 -1.85,-1.28906 -3.72,-1.929686 -5.62,-1.929686 h -13.71 c -1.89,0 -3.28,0.640626 -4.14,1.929686 -0.85,1.28906 -0.89,2.89063 -0.14,4.78125" /><g
         id="g244"><g
           clip-path="url(#clipPath250)"
           id="g246"><path
             id="path260"
             style="fill:url(#radialGradient258);fill-opacity:1;fill-rule:nonzero;stroke:none"
             d="m 1373.56,986.852 c 0,-248.282 -201.27,-449.551 -449.54,-449.551 -248.274,0 -449.543,201.269 -449.543,449.551 0,248.268 201.269,449.538 449.543,449.538 248.27,0 449.54,-201.27 449.54,-449.538" /></g></g><g
         id="g262"><g
           clip-path="url(#clipPath268)"
           id="g264"><path
             id="path282"
             style="fill:url(#radialGradient280);fill-opacity:1;fill-rule:nonzero;stroke:none"
             d="M 203.113,1146.78 C -8.18359,874.578 -52.5625,554.691 89.9844,314.148 280.824,-7.87109 773.316,-75.6797 1234.14,138.52 552.027,297.148 254.371,705.859 203.113,1146.78" /></g></g><path
         id="path284"
         style="fill:#231f20;fill-opacity:1;fill-rule:nonzero;stroke:none"
         d="M 1236.93,150.539 C 1112.11,179.262 989.602,218.75 873.629,272.77 757.945,327 648.012,394.719 552.598,480 456.918,564.84 376.82,667.09 317.328,780.629 257.652,894.191 220.344,1019.17 203.113,1146.78 215.453,1018.53 250.426,891.961 307.59,775.711 364.414,659.168 445.145,554.641 540.641,466.789 636.34,378.949 746.516,307.281 863.988,252.211 970.469,201.93 1082.31,163.941 1196.23,135.172 1125.37,104.621 1052.07,79.8594 977.164,61.8711 890.742,40.9805 802.164,28.4414 713.32,27.5117 624.59,26.4883 535.52,36.75 450.484,61.4883 365.609,86.2109 284.734,126.031 216.895,182.441 c -33.899,28.098 -64.676,60.02 -90.872,95.508 -26.0386,35.129 -48.0582,74.43 -65.0972,115.02 C 26.5156,474.531 11.7031,564.102 15.0156,652.91 18.3359,741.84 38.0547,830.172 71.0703,913.301 103.961,996.551 149.43,1074.76 203.113,1146.78 146.777,1076.78 98.9336,999.48 63.7695,916.27 28.6328,833.27 5.36719,744.328 0.925781,653.539 -3.86328,562.941 9.80078,470.738 44.0156,386.031 77.7813,301.301 132.266,224.18 202.621,165.328 272.883,106.309 356.469,64.7188 443.801,38.8203 531.324,12.8516 622.688,1.89844 713.547,2.48828 895.727,3.53906 1075.4,50.6406 1239.34,127.301 l 32.51,15.211 -34.92,8.027" /><g
         id="g286"><g
           clip-path="url(#clipPath292)"
           id="g288"><path
             id="path306"
             style="fill:url(#radialGradient304);fill-opacity:1;fill-rule:nonzero;stroke:none"
             d="m 1899.17,1353.11 c -119.63,206.07 -356.25,332.12 -636.32,326.48 472.54,-598.4 226.12,-1243.59 39.59,-1509.281 25.26,12.769 50.41,26.152 75.36,40.64 497.15,288.692 727.12,787.832 521.37,1142.161" /></g></g><path
         id="path308"
         style="fill:#006800;fill-opacity:1;fill-rule:nonzero;stroke:none"
         d="m 1964.37,1181.5 c -11.97,60.36 -34.09,118.61 -65.2,171.61 30.69,-53.25 52.29,-111.61 63.75,-171.9 11.54,-60.27 13.05,-122.27 6.14,-183.14 C 1955.42,875.859 1907.8,759.578 1843,656.148 1777.93,552.43 1695.17,460.559 1602.41,381.25 c -81.6,-69.789 -171.34,-129.73 -265.8,-180.328 65.79,102.148 115.77,213.758 152.15,329.437 39.83,130.2 60.32,266.582 58.33,402.832 -1.52,136.279 -28.21,272.049 -76.86,398.949 -47.45,124.28 -116.06,239.63 -198.54,343.15 59.32,1.17 118.84,-3.31 177.19,-14.7 61.23,-11.82 120.91,-31.76 177.11,-58.87 56.16,-27.17 108.75,-61.99 155.11,-103.89 46.36,-41.85 86.46,-90.74 118.07,-144.72 -31.19,54.21 -70.94,103.49 -117.08,145.8 -46.14,42.38 -98.63,77.71 -154.81,105.45 -56.17,27.87 -116.15,47.69 -177.43,61.03 -61.33,13.25 -124.25,19.1 -187.07,18.51 l -8.67,-0.08 5.36,-6.92 c 82.33,-106.36 149.71,-224.4 194.99,-350.63 45.57,-126.08 68.21,-259.74 69.39,-393.329 1.05,-133.75 -20.62,-267.23 -60,-394.921 -39.02,-127.711 -95.1,-251.168 -170.75,-361.122 L 1267.72,140 l 39.89,20.129 c 55.22,27.84 108.6,59.641 159.5,94.691 51.03,34.918 99.92,72.969 146.07,114.071 92.19,82.179 173.87,176.738 237.3,282.668 63.21,105.722 108.21,223.531 121.54,346.171 6.45,61.21 4.41,123.44 -7.65,183.77" /><path
         id="path310"
         style="fill:#00aeef;fill-opacity:1;fill-rule:nonzero;stroke:none"
         d="m 2044.29,366.711 -40.43,-132 h 151.2 c 38.07,57.23 79.64,112.789 124.25,166.789 l 79.56,307.602 C 2245.41,605.59 2141.64,491.18 2044.29,366.711" /><path
         id="path312"
         style="fill:#00aeef;fill-opacity:1;fill-rule:nonzero;stroke:none"
         d="m 3999.28,1341.37 h -0.29 c -218.08,-15.73 -414.7,-45.92 -593.78,-89.14 -9.25,-15.44 -16.39,-32.39 -21.07,-50.91 l -11.55,-44.76 c 182.66,71.38 379.67,130.89 590.25,177.1 12.17,2.67 24.29,5.15 36.44,7.71" /><path
         id="path314"
         style="fill:#00aeef;fill-opacity:1;fill-rule:nonzero;stroke:none"
         d="m 2469.97,767.59 -71.8,-233.899 c 84.99,87 179.13,168.93 282,245.27 l 14.55,47.48 h 51.56 c 99.02,68.758 205.43,132.629 319.04,191.159 -18.04,5.66 -37.29,8.65 -57.7,8.64 h -0.29 -0.07 -11.95 -0.29 -0.02 -190.57 C 2688.18,963.551 2581.33,892.609 2481.99,813.93 l -12.02,-46.34" /><g
         id="g316"><g
           clip-path="url(#clipPath322)"
           id="g318"><path
             id="path332"
             style="fill:url(#radialGradient330);fill-opacity:1;fill-rule:nonzero;stroke:none"
             d="M 881.773,1433.93 C 653.305,1412.64 474.477,1220.38 474.477,986.34 c 0,-40.949 5.48,-80.629 15.734,-118.328 10.121,-24.403 21.019,-48.742 32.68,-72.922 13.422,-27.828 27.578,-54.399 42.422,-79.738 72.238,-95.461 181.707,-161.192 306.796,-175.582 -137.312,334.558 -119.39,659.27 9.664,894.16" /></g></g><g
         id="g334"><g
           clip-path="url(#clipPath340)"
           id="g336"><path
             id="path354"
             style="fill:url(#radialGradient352);fill-opacity:1;fill-rule:nonzero;stroke:none"
             d="m 931.09,464.82 c -326.149,465.192 -264.11,985.11 63.715,1214.95 188.975,132.5 393.845,133.42 630.045,49.46 C 1297.6,2106.57 836.578,2205.47 540.305,1993.38 225.152,1767.74 197.141,1181.73 523.313,716.531 661.461,519.488 832.832,411.512 1023.83,346.121 991.5,383.441 960.449,422.969 931.09,464.82" /></g></g><path
         id="path356"
         style="fill:#1c75bc;fill-opacity:1;fill-rule:nonzero;stroke:none"
         d="m 1633.35,1736.6 c -89.4,103.56 -195.13,193.96 -314.95,261.37 -119.39,67.27 -253.76,112.13 -392.189,117.3 -68.981,2.74 -138.609,-4.47 -205.352,-23 C 654.148,2073.8 590.52,2043.74 534.285,2003.3 477.777,1962.78 430.176,1910.55 393.516,1852 356.836,1793.36 330.434,1728.93 312.766,1662.61 277.516,1529.58 275.895,1389.84 297.168,1255.24 318.66,1120.39 363.484,989.801 426.699,869.309 490.367,749.34 570.027,636.398 671.738,545.711 772.988,454.559 895.168,388.961 1023.7,345.73 l 1.45,-0.492 -1,1.16 c -32.998,37.852 -64.091,77.383 -93.06,118.422 28.441,-40.761 59,-80.058 91.41,-117.761 C 894.836,390.961 773.805,456.949 673.785,548 623.453,593.359 578.285,644.379 538.461,699.109 498.922,754.16 463.723,812.238 433.113,872.621 371.969,993.328 329.418,1123.56 310.082,1257.2 c -19.144,133.37 -15.394,271.04 20.91,400.4 18.172,64.51 44.77,126.68 80.942,182.69 35.988,56.01 81.621,105.86 135.808,144.14 54.211,38.54 115.379,67.02 179.563,84.39 64.211,17.46 131.269,24.04 197.847,21.02 133.428,-6.36 264.128,-48.36 381.148,-113.5 104.98,-58.28 199.35,-134.94 281.41,-222.95 -66.95,21.01 -136.06,36.02 -206.43,41.04 -84.6,6.14 -171.11,-4.11 -250.68,-34.23 -79.56,-29.96 -151.912,-77.13 -212.651,-135.92 C 857.25,1565.31 809.285,1493.9 775.824,1416.61 742.25,1339.28 722.98,1256.23 716.352,1172.55 709.645,1088.82 714.965,1004.32 730.816,921.961 762.438,756.941 834.645,601.488 931.09,464.82 835.414,602.039 764.23,757.762 733.637,922.5 c -15.203,82.19 -20.457,166.44 -12.68,249.65 7.797,83.13 28.16,165.18 62.441,241.12 34.184,75.87 82.469,145.43 142.832,202.39 60.348,56.77 132.04,101.92 209.74,129.85 77.78,28.1 161.6,36.77 243.83,29.61 82.46,-6.86 163.11,-28.73 241.28,-56.49 l 40.1,-14.24 -27.83,32.21" /></g></g></svg>